<?xml version="1.0" standalone="no"?>
<!DOCTYPE svg PUBLIC "-//W3C//DTD SVG 1.1//EN" "http://www.w3.org/Graphics/SVG/1.1/DTD/svg11.dtd" >
<svg xmlns="http://www.w3.org/2000/svg" xmlns:xlink="http://www.w3.org/1999/xlink" version="1.1">
<metadata>
Created by FontForge 20161003 at Tue Aug  6 04:21:58 2019
 By www-data
Copyright (c) 2005 VirusFonts. All rights reserved.
</metadata>
<defs>
<font id="UVFBourgeois-Med" horiz-adv-x="532" >
  <font-face 
    font-family="UVF Bourgeois "
    font-weight="500"
    font-stretch="normal"
    units-per-em="1000"
    panose-1="2 0 5 6 0 0 0 2 0 4"
    ascent="800"
    descent="-200"
    x-height="421"
    cap-height="568"
    bbox="-303 -227 813 892"
    underline-thickness="20"
    underline-position="-133"
    unicode-range="U+0020-FB02"
  />
<missing-glyph horiz-adv-x="180" 
 />
    <glyph glyph-name=".notdef" horiz-adv-x="180" 
 />
    <glyph glyph-name="Eth" unicode="&#xd0;" horiz-adv-x="567" 
d="M70 0v272h-50v47h50v249h328q46 0 77 -32q32 -31 32 -76v-352q0 -44 -32 -76q-31 -32 -77 -32h-328zM382 63q24 0 41 17q16 16 16 39v330q0 23 -16 39q-17 17 -41 17h-244v-186h98v-47h-98v-209h244z" />
    <glyph glyph-name="eth" unicode="&#xf0;" horiz-adv-x="480" 
d="M55 335q0 39 28 68q28 28 69 28h130q55 0 79 -48v117l-48 7v46l48 -8v93h64v-103l48 -7v-45l-48 7v-490h-58l-5 37q-25 -47 -79 -47h-131q-41 0 -69 28t-28 68v249zM119 93q0 -19 13 -33q14 -14 33 -14h132q27 0 46 18q18 19 18 45v199q0 26 -18 45q-19 18 -46 18h-132
q-19 0 -33 -14q-13 -14 -13 -33v-231z" />
    <glyph glyph-name="Lslash" unicode="&#x141;" horiz-adv-x="446" 
d="M70 0v272l-50 -10v47l50 9v250h68v-238l50 9v-47l-50 -10v-219h298v-63h-366z" />
    <glyph glyph-name="lslash" unicode="&#x142;" horiz-adv-x="215" 
d="M7 263v46l48 8v321h64v-310l48 9v-45l-48 -9v-176q0 -19 14 -33t33 -14h39v-60h-53q-40 0 -69 29q-28 28 -28 67v176z" />
    <glyph glyph-name="Scaron" unicode="&#x160;" horiz-adv-x="518" 
d="M154 766h57l48 -99l48 99h57l-82 -145h-45zM55 166h65v-57q0 -23 17 -39q17 -17 40 -17h162q23 0 41 17q17 17 17 39v64q0 39 -34 50l-240 75q-68 22 -68 94v78q0 44 32 76t77 32h190q46 0 77 -32q32 -31 32 -76v-68h-65v57q0 23 -17 39q-17 17 -40 17h-162
q-23 0 -41 -17q-17 -17 -17 -39v-59q0 -38 34 -49l240 -76q68 -22 68 -94v-83q0 -44 -32 -76q-31 -32 -77 -32h-190q-45 0 -77 32t-32 76v68z" />
    <glyph glyph-name="scaron" unicode="&#x161;" horiz-adv-x="432" 
d="M111 606h57l48 -99l48 99h57l-82 -145h-45zM45 135h59v-40q0 -19 14 -32q14 -14 34 -14h126q19 0 33 14t14 33v28q0 29 -28 37l-196 56q-56 15 -56 77v41q0 40 29 68q28 28 68 28h148q40 0 69 -28q28 -28 28 -68v-49h-59v40q0 19 -14 32q-14 14 -34 14h-126
q-19 0 -33 -14q-13 -13 -13 -32v-28q0 -29 27 -37l196 -56q56 -15 56 -77v-42q0 -40 -28 -68q-29 -28 -69 -28h-148q-40 0 -68 28q-29 28 -29 68v49z" />
    <glyph glyph-name="Yacute" unicode="&#xdd;" horiz-adv-x="503" 
d="M10 568h77l164 -272l165 272h77l-208 -340v-228h-67v228zM232 620l54 145h66l-75 -145h-45z" />
    <glyph glyph-name="yacute" unicode="&#xfd;" horiz-adv-x="397" 
d="M78 -217l90 226l-163 412h70l126 -329l124 329h67l-246 -638h-68zM194 460l54 145h66l-76 -145h-44z" />
    <glyph glyph-name="Thorn" unicode="&#xde;" horiz-adv-x="478" 
d="M70 0v568h68v-104h196q46 0 77 -32q32 -31 32 -76v-138q0 -44 -32 -76q-31 -32 -77 -32h-196v-110h-68zM313 167q26 0 44 19q18 18 18 43v113q0 25 -18 43q-18 19 -44 19h-175v-237h175z" />
    <glyph glyph-name="thorn" unicode="&#xfe;" horiz-adv-x="480" 
d="M55 -217v855h64v-255q24 48 79 48h130q41 0 69 -28q28 -29 28 -68v-249q0 -40 -28 -68t-69 -28h-130q-55 0 -79 47v-254h-64zM119 109q0 -26 19 -45q18 -18 45 -18h132q19 0 33 14q13 14 13 33v231q0 19 -13 33q-14 14 -33 14h-132q-27 0 -45 -18q-19 -19 -19 -45v-199z
" />
    <glyph glyph-name="Zcaron" unicode="&#x17d;" horiz-adv-x="447" 
d="M20 0v29l304 478h-304v61h404v-30l-303 -474h306v-64h-407zM119 766h57l48 -99l48 99h57l-83 -145h-45z" />
    <glyph glyph-name="zcaron" unicode="&#x17e;" horiz-adv-x="374" 
d="M82 606h57l48 -99l48 99h57l-82 -145h-45zM25 0v28l225 334h-225v59h321v-29l-225 -331h228v-61h-324z" />
    <glyph glyph-name="glyph13" horiz-adv-x="543" 
d="M30 224v34h50v53h-50v33h50v126q0 44 32 76t77 32h210q46 0 77 -32q32 -31 32 -76v-71h-65v60q0 23 -16 39q-17 17 -40 17h-183q-23 0 -40 -17q-16 -16 -16 -39v-115h243l-10 -33h-233v-53h212l-9 -34h-203v-115q0 -23 16 -39q17 -17 40 -17h183q23 0 40 17q16 16 16 39
v59h65v-70q0 -44 -32 -76q-31 -32 -77 -32h-210q-45 0 -77 32t-32 76v126h-50z" />
    <glyph glyph-name="brokenbar" unicode="&#xa6;" horiz-adv-x="256" 
d="M105 -190v391h46v-391h-46zM105 330v380h46v-380h-46z" />
    <glyph glyph-name="minus" unicode="&#x2212;" horiz-adv-x="469" 
d="M50 211v58h369v-58h-369z" />
    <glyph glyph-name="multiply" unicode="&#xd7;" horiz-adv-x="585" 
d="M70 59l185 186l-185 186l38 37l184 -185l186 186l37 -38l-185 -186l185 -186l-37 -37l-186 186l-184 -186z" />
    <glyph glyph-name="exclam" unicode="!" horiz-adv-x="223" 
d="M72 0v79h79v-79h-79zM82 136l-12 432h83l-13 -432h-58z" />
    <glyph glyph-name="quotedbl" unicode="&#x22;" horiz-adv-x="302" 
d="M49 345l-9 223h69l-9 -223h-51zM202 345l-9 223h69l-9 -223h-51z" />
    <glyph glyph-name="numbersign" unicode="#" horiz-adv-x="525" 
d="M30 181l8 38h111l28 131h-109l7 38h110l38 180h42l-39 -180h117l39 180h42l-39 -180h110l-7 -38h-111l-29 -131h110l-8 -38h-110l-38 -181h-42l38 181h-116l-38 -181h-42l39 181h-111zM307 219l28 131h-117l-28 -131h117z" />
    <glyph glyph-name="dollar" unicode="$" horiz-adv-x="478" 
d="M225 0v64h-68q-40 0 -68 28q-29 28 -29 68v49h59v-40q0 -19 14 -32q14 -14 34 -14h58v139l-109 29q-56 15 -56 77v41q0 40 29 68q28 28 68 28h68v63h28v-63h68q40 0 69 -28q28 -28 28 -68v-49h-59v40q0 19 -14 32q-14 14 -34 14h-58v-139l109 -28q56 -15 56 -77v-42
q0 -40 -28 -68q-29 -28 -69 -28h-68v-64h-28zM309 123q19 0 33 14t14 33v28q0 30 -28 37l-75 19v-131h56zM225 446h-56q-19 0 -33 -14q-13 -13 -13 -32v-28q0 -29 27 -37l75 -20v131z" />
    <glyph glyph-name="percent" unicode="%" horiz-adv-x="512" 
d="M274 144q0 29 20 49t48 20h62q28 0 48 -20q20 -21 20 -49v-85q0 -28 -20 -48t-48 -20h-62q-28 0 -48 20t-20 48v85zM40 510q0 28 20 48q19 20 47 20h63q28 0 48 -20t20 -48v-85q0 -28 -20 -49q-20 -20 -48 -20h-63q-28 0 -47 20q-20 20 -20 49v85zM87 431q0 -30 27 -30
h49q28 0 28 30v73q0 29 -28 29h-49q-27 0 -27 -29v-73zM98 0l267 568h48l-267 -568h-48zM321 65q0 -29 27 -29h49q28 0 28 29v73q0 30 -28 30h-49q-27 0 -27 -30v-73z" />
    <glyph glyph-name="ampersand" unicode="&#x26;" horiz-adv-x="512" 
d="M55 198q0 34 22 60q21 24 51 29q-64 19 -64 88v99q0 43 30 73q31 31 75 31h157q44 0 75 -31q30 -30 30 -73v-48h-65v34q0 23 -16 39q-17 17 -41 17h-121q-24 0 -40 -17q-16 -16 -16 -39v-91q0 -23 16 -39t40 -16h299v-49h-49v-167q0 -44 -32 -76q-31 -32 -77 -32h-169
q-43 0 -74 31t-31 74v103zM121 109q0 -23 17 -39q16 -17 40 -17h137q24 0 40 17q16 16 16 39v152h-193q-24 0 -40 -16q-17 -15 -17 -38v-98z" />
    <glyph glyph-name="quotesingle" unicode="'" horiz-adv-x="149" 
d="M49 345l-9 223h69l-9 -223h-51z" />
    <glyph glyph-name="parenleft" unicode="(" horiz-adv-x="251" 
d="M70 516q0 41 30 71q29 29 72 29h39v-50h-24q-22 0 -37 -15t-15 -36v-536q0 -21 15 -36t37 -15h24v-51h-39q-42 0 -72 30t-30 71v538z" />
    <glyph glyph-name="parenright" unicode=")" horiz-adv-x="251" 
d="M181 -22q0 -41 -30 -71q-29 -30 -72 -30h-39v51h24q22 0 37 15t15 36v536q0 21 -15 36t-37 15h-24v50h39q43 0 72 -29q30 -30 30 -71v-538z" />
    <glyph glyph-name="asterisk" unicode="*" horiz-adv-x="465" 
d="M40 283l162 79l-162 79l28 48l149 -101l-12 180h56l-13 -180l149 101l28 -48l-163 -79l163 -79l-28 -48l-149 101l13 -181h-56l12 181l-149 -101z" />
    <glyph glyph-name="plus" unicode="+" horiz-adv-x="572" 
d="M50 211v58h206v210h60v-210h206v-58h-206v-211h-60v211h-206z" />
    <glyph glyph-name="comma" unicode="," horiz-adv-x="238" 
d="M77 -157l32 157h-29v79h78v-64l-58 -172h-23z" />
    <glyph glyph-name="hyphen" unicode="-" horiz-adv-x="300" 
d="M50 180v58h200v-58h-200z" />
    <glyph glyph-name="period" unicode="." horiz-adv-x="238" 
d="M80 0v79h78v-79h-78z" />
    <glyph glyph-name="slash" unicode="/" horiz-adv-x="361" 
d="M10 -12l283 607h58l-282 -607h-59z" />
    <glyph glyph-name="zero" unicode="0" horiz-adv-x="574" 
d="M60 470q0 44 32 76t77 32h236q45 0 77 -32t32 -76v-372q0 -44 -32 -76q-31 -32 -77 -32h-236q-45 0 -77 32t-32 76v372zM128 109q0 -19 13 -35l267 439q-6 2 -17 2h-206q-24 0 -40 -17q-17 -16 -17 -39v-350zM167 56q8 -3 17 -3h206q23 0 40 17q16 16 16 39v350
q0 20 -13 36z" />
    <glyph glyph-name="one" unicode="1" horiz-adv-x="385" 
d="M39 0v63h121v408l-87 -85l-38 45l156 144h37v-512h122v-63h-311z" />
    <glyph glyph-name="two" unicode="2" horiz-adv-x="503" 
d="M50 29l317 319q18 20 18 46v65q0 23 -16 39q-17 17 -41 17h-155q-24 0 -40 -17q-17 -16 -17 -39v-37h-66v51q0 43 31 74t74 31h193q43 0 74 -31t31 -74v-79q0 -51 -31 -81l-251 -250h276v-63h-397v29z" />
    <glyph glyph-name="three" unicode="3" horiz-adv-x="514" 
d="M50 145h64v-36q0 -23 17 -39q16 -17 40 -17h161q23 0 40 17q16 16 16 39v105q0 23 -16 39q-17 16 -40 16h-133v52h122q24 0 41 16q16 16 16 39v86q0 23 -16 39q-17 17 -41 17h-138q-24 0 -40 -17q-17 -16 -17 -39v-40h-66v51q0 43 31 74t74 31h176q43 0 74 -31t31 -74
v-91q0 -68 -65 -87q30 -5 51 -30q22 -26 22 -60v-110q0 -43 -30 -74q-31 -31 -75 -31h-194q-43 0 -74 31t-31 74v50z" />
    <glyph glyph-name="four" unicode="4" horiz-adv-x="486" 
d="M20 161l329 413h57v-388h70v-60h-70v-126h-67v126h-319v35zM339 186v284l-227 -284h227z" />
    <glyph glyph-name="five" unicode="5" horiz-adv-x="524" 
d="M60 146h65v-37q0 -23 16 -39q16 -17 40 -17h159q24 0 41 17q16 16 16 39v153q0 23 -16 39q-17 17 -41 17h-156q-27 0 -45 -17q-15 -14 -17 -30v-1h-55v298h390v-59h-324v-164q35 27 72 27h151q45 0 77 -32q31 -32 31 -76v-166q0 -44 -31 -76q-32 -32 -77 -32h-191
q-43 0 -74 31q-31 30 -31 73v52z" />
    <glyph glyph-name="six" unicode="6" horiz-adv-x="524" 
d="M60 470q0 44 32 76t77 32h187q45 0 77 -32q31 -32 31 -76v-48h-66v37q0 23 -16 39q-16 17 -40 17h-158q-23 0 -40 -17q-16 -16 -16 -39v-130q27 17 67 17h161q45 0 77 -32q31 -32 31 -76v-140q0 -44 -31 -76q-32 -32 -77 -32h-187q-45 0 -77 32t-32 76v372zM128 109
q0 -23 16 -39q17 -17 40 -17h156q24 0 40 17q16 16 16 39v128q0 23 -16 39q-16 17 -40 17h-160q-31 0 -52 -18v-166z" />
    <glyph glyph-name="seven" unicode="7" horiz-adv-x="472" 
d="M365 508h-345v60h432v-27l-241 -541h-74z" />
    <glyph glyph-name="eight" unicode="8" horiz-adv-x="524" 
d="M60 209q0 34 22 60q21 24 51 29q-64 19 -64 88v87q0 43 31 74t74 31h177q43 0 74 -31t31 -74v-87q0 -69 -65 -88q30 -5 51 -29q22 -26 22 -60v-114q0 -43 -30 -74q-31 -31 -75 -31h-194q-43 0 -74 31t-31 74v114zM127 109q0 -23 16 -39q16 -17 40 -17h159q23 0 40 17
q16 16 16 39v109q0 23 -16 39q-17 16 -40 16h-159q-24 0 -40 -16t-16 -39v-109zM137 380q0 -23 16 -39q17 -16 40 -16h138q24 0 41 16q16 16 16 39v82q0 23 -16 39q-17 17 -41 17h-138q-23 0 -40 -17q-16 -16 -16 -39v-82z" />
    <glyph glyph-name="nine" unicode="9" horiz-adv-x="524" 
d="M464 98q0 -44 -32 -76t-77 -32h-187q-45 0 -76 32q-32 32 -32 76v48h66v-37q0 -23 16 -39q16 -17 40 -17h158q23 0 40 17q16 16 16 39v130q-27 -17 -67 -17h-161q-45 0 -76 32q-32 32 -32 76v140q0 44 32 76q31 32 76 32h187q45 0 77 -32t32 -76v-372zM396 459
q0 23 -16 39q-17 17 -40 17h-156q-24 0 -40 -17q-16 -16 -16 -39v-128q0 -23 16 -39q16 -17 40 -17h160q31 0 52 18v166z" />
    <glyph glyph-name="colon" unicode=":" horiz-adv-x="239" 
d="M80 78h79v-78h-79v78zM80 421h79v-79h-79v79z" />
    <glyph glyph-name="semicolon" unicode=";" horiz-adv-x="238" 
d="M79 421h79v-79h-79v79zM77 -157l32 157h-29v79h78v-64l-58 -172h-23z" />
    <glyph glyph-name="less" unicode="&#x3c;" horiz-adv-x="386" 
d="M30 254l316 177v-61l-236 -130l236 -130v-61l-316 177v28z" />
    <glyph glyph-name="equal" unicode="=" horiz-adv-x="469" 
d="M50 212h369v-54h-369v54zM50 351h369v-54h-369v54z" />
    <glyph glyph-name="greater" unicode="&#x3e;" horiz-adv-x="386" 
d="M356 226l-316 -177v61l236 130l-236 130v61l316 -177v-28z" />
    <glyph glyph-name="question" unicode="?" horiz-adv-x="460" 
d="M160 78h79v-78h-79v78zM50 474q0 43 31 73q31 31 74 31h170q43 0 74 -31q31 -30 31 -73v-72q0 -61 -60 -90l-103 -48q-38 -17 -38 -54v-75h-61v86q0 60 63 91l97 45q35 16 35 53v49q0 23 -16 39q-17 17 -41 17h-134q-23 0 -40 -17q-17 -16 -17 -39v-53h-65v68z" />
    <glyph glyph-name="at" unicode="@" horiz-adv-x="714" 
d="M169 -148q-45 0 -77 32t-32 76v509q0 45 32 77t77 32h377q45 0 77 -32q31 -32 31 -76v-330q0 -39 -28 -67t-68 -28h-22q-47 0 -74 39q-27 -39 -73 -39h-87q-38 0 -64 26t-26 63v152q0 37 26 63q26 27 64 27h183v-235q0 -19 14 -33t33 -14h16q19 0 33 14t14 33v323
q0 24 -17 41q-18 18 -42 18h-362q-24 0 -42 -18q-18 -17 -18 -41v-502q0 -24 18 -42q18 -19 42 -19h475v-49h-480zM264 141q0 -19 13 -33q14 -14 33 -14h76q19 0 33 14t14 33v186h-123q-19 0 -33 -14q-13 -14 -13 -33v-139z" />
    <glyph glyph-name="A" unicode="A" 
d="M235 568h63l224 -568h-70l-66 169h-240l-66 -169h-70zM366 226l-100 256l-100 -256h200z" />
    <glyph glyph-name="B" unicode="B" horiz-adv-x="514" 
d="M70 568h269q43 0 74 -31q31 -30 31 -73v-88q0 -67 -62 -86q31 -5 54 -30q23 -26 23 -61v-94q0 -43 -31 -74t-74 -31h-284v568zM335 63q23 0 40 17q16 16 16 39v88q0 22 -16 38q-17 16 -40 16h-197v-198h197zM320 314q23 0 40 16q16 16 16 39v84q0 23 -16 39
q-17 17 -40 17h-182v-195h182z" />
    <glyph glyph-name="C" unicode="C" horiz-adv-x="533" 
d="M60 470q0 44 32 76t76 32h201q46 0 77 -32q32 -31 32 -76v-75h-66v64q0 23 -16 39q-17 17 -41 17h-171q-24 0 -40 -17q-17 -16 -17 -39v-350q0 -23 17 -39q16 -17 40 -17h171q24 0 41 17q16 16 16 39v62h66v-73q0 -44 -32 -76q-31 -32 -77 -32h-201q-44 0 -76 32t-32 76
v372z" />
    <glyph glyph-name="D" unicode="D" horiz-adv-x="567" 
d="M70 0v568h328q46 0 77 -32q32 -31 32 -76v-352q0 -44 -32 -76q-31 -32 -77 -32h-328zM382 63q24 0 41 17q16 16 16 39v330q0 23 -16 39q-17 17 -41 17h-244v-442h244z" />
    <glyph glyph-name="E" unicode="E" horiz-adv-x="476" 
d="M70 568h359v-60h-291v-192h224v-57h-224v-195h298v-64h-366v568z" />
    <glyph glyph-name="F" unicode="F" horiz-adv-x="461" 
d="M70 568h356v-60h-288v-199h222v-56h-222v-253h-68v568z" />
    <glyph glyph-name="G" unicode="G" horiz-adv-x="538" 
d="M60 470q0 44 32 76t77 32h200q46 0 77 -32q32 -31 32 -76v-75h-66v64q0 23 -16 39q-17 17 -40 17h-172q-23 0 -40 -17q-16 -16 -16 -39v-350q0 -23 16 -39q17 -17 40 -17h172q23 0 40 17q16 16 16 39v99h-130v55h196v-165q0 -44 -32 -76q-31 -32 -77 -32h-200
q-45 0 -77 32t-32 76v372z" />
    <glyph glyph-name="H" unicode="H" horiz-adv-x="564" 
d="M70 568h68v-249h288v249h68v-568h-68v257h-288v-257h-68v568z" />
    <glyph glyph-name="I" unicode="I" horiz-adv-x="219" 
d="M75 568h69v-568h-69v568z" />
    <glyph glyph-name="J" unicode="J" horiz-adv-x="462" 
d="M30 172h67v-63q0 -23 17 -39q16 -17 40 -17h123q23 0 40 17q16 16 16 39v459h69v-470q0 -44 -32 -76q-31 -32 -77 -32h-154q-45 0 -77 32t-32 76v74z" />
    <glyph glyph-name="K" unicode="K" horiz-adv-x="518" 
d="M70 568h68v-262l282 262h84l-301 -282l305 -286h-88l-282 262v-262h-68v568z" />
    <glyph glyph-name="L" unicode="L" horiz-adv-x="446" 
d="M70 0v568h68v-505h298v-63h-366z" />
    <glyph glyph-name="M" unicode="M" horiz-adv-x="674" 
d="M70 568h49l218 -459l219 459h48v-568h-65v387l-184 -387h-35l-184 387v-387h-66v568z" />
    <glyph glyph-name="N" unicode="N" horiz-adv-x="581" 
d="M70 568h52l321 -320v320h68v-568h-68v159l-305 306v-465h-68v568z" />
    <glyph glyph-name="O" unicode="O" horiz-adv-x="574" 
d="M60 470q0 44 32 76t77 32h236q45 0 77 -32t32 -76v-372q0 -44 -32 -76q-31 -32 -77 -32h-236q-45 0 -77 32t-32 76v372zM128 109q0 -23 16 -39q17 -17 40 -17h206q24 0 40 17q16 16 16 39v350q0 23 -16 39q-16 17 -40 17h-206q-23 0 -40 -17q-16 -16 -16 -39v-350z" />
    <glyph glyph-name="P" unicode="P" horiz-adv-x="478" 
d="M70 568h264q46 0 77 -32q32 -31 32 -76v-137q0 -44 -32 -76q-31 -32 -77 -32h-197v-215h-67v568zM313 272q26 0 44 19q18 18 18 43v113q0 25 -18 43q-18 19 -44 19h-176v-237h176z" />
    <glyph glyph-name="Q" unicode="Q" horiz-adv-x="574" 
d="M60 470q0 44 32 76t76 32h237q46 0 77 -32q32 -31 32 -76v-372q0 -44 -32 -76q-31 -32 -77 -32h-76l80 -105h-80l-73 105h-88q-44 0 -76 32t-32 76v372zM128 109q0 -23 16 -39q17 -17 40 -17h206q24 0 40 17q16 16 16 39v350q0 23 -16 39q-16 17 -40 17h-206
q-23 0 -40 -17q-16 -16 -16 -39v-350z" />
    <glyph glyph-name="R" unicode="R" horiz-adv-x="507" 
d="M70 568h264q46 0 77 -32q32 -31 32 -76v-134q0 -41 -27 -71q-28 -30 -68 -34h-16l155 -221h-78l-152 218h-119v-218h-68v568zM313 275q26 0 44 19q18 18 18 43v110q0 25 -18 43q-18 19 -44 19h-175v-234h175z" />
    <glyph glyph-name="S" unicode="S" horiz-adv-x="518" 
d="M55 166h65v-57q0 -23 17 -39q17 -17 40 -17h162q23 0 41 17q17 17 17 39v64q0 39 -34 50l-240 75q-68 22 -68 94v78q0 44 32 76t77 32h190q46 0 77 -32q32 -31 32 -76v-68h-65v57q0 23 -17 39q-17 17 -40 17h-162q-23 0 -41 -17q-17 -17 -17 -39v-59q0 -38 34 -49
l240 -76q68 -22 68 -94v-83q0 -44 -32 -76q-31 -32 -77 -32h-190q-45 0 -77 32t-32 76v68z" />
    <glyph glyph-name="T" unicode="T" horiz-adv-x="477" 
d="M10 568h457v-60h-195v-508h-67v508h-195v60z" />
    <glyph glyph-name="U" unicode="U" horiz-adv-x="554" 
d="M65 568h67v-459q0 -23 17 -39q16 -17 40 -17h175q24 0 41 17q16 16 16 39v459h68v-470q0 -44 -32 -76q-31 -32 -77 -32h-207q-44 0 -76 32t-32 76v470z" />
    <glyph glyph-name="V" unicode="V" horiz-adv-x="518" 
d="M83 568l176 -471l176 471h73l-218 -568h-62l-218 568h73z" />
    <glyph glyph-name="W" unicode="W" horiz-adv-x="745" 
d="M83 568l180 -480l80 208l-104 272h59l74 -196l75 196h59l-104 -272l80 -208l180 480h73l-219 -568h-60l-84 222l-83 -222h-60l-219 568h73z" />
    <glyph glyph-name="X" unicode="X" 
d="M227 284l-212 284h83l168 -229l168 229h83l-212 -284l212 -284h-84l-167 230l-168 -230h-83z" />
    <glyph glyph-name="Y" unicode="Y" horiz-adv-x="503" 
d="M10 568h77l164 -272l165 272h77l-208 -340v-228h-67v228z" />
    <glyph glyph-name="Z" unicode="Z" horiz-adv-x="447" 
d="M20 0v29l304 478h-304v61h404v-30l-303 -474h306v-64h-407z" />
    <glyph glyph-name="bracketleft" unicode="[" horiz-adv-x="245" 
d="M70 616h135v-45h-76v-648h76v-46h-135v739z" />
    <glyph glyph-name="backslash" unicode="\" horiz-adv-x="361" 
d="M68 595l283 -607h-59l-282 607h58z" />
    <glyph glyph-name="bracketright" unicode="]" horiz-adv-x="245" 
d="M175 -123h-135v46h76v648h-76v45h135v-739z" />
    <glyph glyph-name="asciicircum" unicode="^" horiz-adv-x="450" 
d="M204 675h42l164 -351h-62l-123 278l-122 -278h-63z" />
    <glyph glyph-name="underscore" unicode="_" horiz-adv-x="410" 
d="M0 0h410v-34h-410v34z" />
    <glyph glyph-name="grave" unicode="`" horiz-adv-x="350" 
d="M181 588l54 -145h-45l-75 145h66z" />
    <glyph glyph-name="a" unicode="a" horiz-adv-x="452" 
d="M397 0h-58l-4 37q-26 -47 -80 -47h-108q-40 0 -69 29q-28 28 -28 67v54q0 57 56 73l200 54q27 8 27 36v23q0 19 -13 33q-14 14 -33 14h-123q-19 0 -34 -14q-14 -14 -14 -33v-42h-59v51q0 40 28 68q29 28 69 28h145q41 0 69 -28q29 -28 29 -68v-335zM113 94q0 -19 13 -33
q14 -14 33 -14h114q25 0 42 17t17 42v123q-7 -7 -20 -11l-172 -49q-27 -6 -27 -37v-38z" />
    <glyph glyph-name="b" unicode="b" horiz-adv-x="480" 
d="M55 638h64v-255q24 48 79 48h130q41 0 69 -28t28 -68v-249q0 -39 -28 -67q-28 -29 -69 -29h-131q-53 0 -79 47l-5 -37h-58v638zM119 109q0 -26 19 -45q18 -18 45 -18h132q19 0 33 14q13 14 13 33v232q0 19 -13 33q-14 14 -33 14h-132q-27 0 -45 -18q-19 -19 -19 -45v-200
z" />
    <glyph glyph-name="c" unicode="c" horiz-adv-x="467" 
d="M55 335q0 40 29 68q28 28 68 28h168q41 0 69 -28t28 -68v-60h-58v51q0 19 -14 33q-15 14 -34 14h-147q-19 0 -33 -14t-14 -33v-231q0 -19 14 -33t33 -14h147q19 0 34 14q14 14 14 33v52h58v-61q0 -39 -28 -67q-28 -29 -69 -29h-168q-40 0 -68 29q-29 28 -29 67v249z" />
    <glyph glyph-name="d" unicode="d" horiz-adv-x="480" 
d="M55 335q0 39 28 68q28 28 69 28h130q55 0 79 -48v255h64v-638h-58l-5 37q-25 -47 -79 -47h-131q-41 0 -69 28t-28 68v249zM119 93q0 -19 13 -33q14 -14 33 -14h132q27 0 46 18q18 19 18 45v199q0 26 -18 45q-19 18 -46 18h-132q-19 0 -33 -14q-13 -14 -13 -33v-231z" />
    <glyph glyph-name="e" unicode="e" horiz-adv-x="461" 
d="M55 335q0 40 29 68q28 28 68 28h162q41 0 69 -28t28 -68v-130h-294v-110q0 -19 14 -33t33 -14h141q19 0 34 14q14 14 14 33v49h58v-58q0 -39 -28 -67q-28 -29 -69 -29h-162q-40 0 -68 29q-29 28 -29 67v249zM353 251v75q0 19 -14 33q-15 14 -34 14h-141q-19 0 -33 -14
t-14 -33v-75h236z" />
    <glyph glyph-name="f" unicode="f" horiz-adv-x="281" 
d="M10 368v53h75v121q0 40 29 68q28 28 68 28h101v-56h-87q-19 0 -33 -14t-14 -33v-114h124v-53h-124v-499q0 -40 -29 -68q-28 -28 -68 -28h-71v56h57q19 0 33 14t14 33v492h-75z" />
    <glyph glyph-name="g" unicode="g" horiz-adv-x="431" 
d="M40 -74q0 36 27 63l42 39q-47 16 -47 65q0 26 19 47q-41 28 -41 79v106q0 39 28 68q29 28 69 28h260v-44l-46 -6q25 -18 25 -53v-99q0 -40 -28 -68t-68 -28h-141q-11 0 -20 3q-11 -11 -11 -27q0 -26 25 -34l202 -45q66 -15 66 -85v-66q0 -40 -28 -68t-68 -28h-168
q-40 0 -69 28q-28 28 -28 68v57zM97 -122q0 -19 14 -33q15 -14 34 -14h148q19 0 33 14t14 33v53q0 36 -33 45l-151 38l-39 -41q-20 -20 -20 -42v-53zM103 218q0 -19 13 -33q14 -14 33 -14h118q19 0 33 14t14 33v97q0 19 -14 33t-33 14h-118q-19 0 -33 -14q-13 -14 -13 -33
v-97z" />
    <glyph glyph-name="h" unicode="h" horiz-adv-x="475" 
d="M55 638h64v-255q24 48 78 48h127q40 0 68 -28t28 -68v-335h-63v325q0 19 -14 33t-33 14h-128q-27 0 -45 -18q-18 -19 -18 -45v-309h-64v638z" />
    <glyph glyph-name="i" unicode="i" horiz-adv-x="194" 
d="M65 421h64v-421h-64v421zM65 568h63v-78h-63v78z" />
    <glyph glyph-name="j" unicode="j" horiz-adv-x="174" 
d="M56 568h62v-78h-62v78zM-57 -167h65q19 0 33 14t14 33v541h64v-552q0 -39 -28 -67q-29 -29 -69 -29h-79v60z" />
    <glyph glyph-name="k" unicode="k" horiz-adv-x="407" 
d="M55 638h64v-407l206 190h79l-222 -209l225 -212h-84l-204 189v-189h-64v638z" />
    <glyph glyph-name="l" unicode="l" horiz-adv-x="215" 
d="M55 638h64v-531q0 -19 14 -33t33 -14h39v-60h-53q-40 0 -69 29q-28 28 -28 67v542z" />
    <glyph glyph-name="m" unicode="m" horiz-adv-x="693" 
d="M55 421h58l4 -38q24 48 79 48h85q50 0 79 -44q29 44 80 44h101q41 0 69 -28t28 -68v-335h-64v325q0 19 -13 33q-14 14 -33 14h-104q-19 0 -33 -14q-13 -14 -14 -33v-325h-62v325q0 19 -14 33t-33 14h-86q-27 0 -45 -18q-18 -19 -18 -45v-309h-64v421z" />
    <glyph glyph-name="n" unicode="n" horiz-adv-x="476" 
d="M55 421h64v-38q24 48 78 48h127q40 0 69 -28q28 -28 28 -68v-335h-64v325q0 19 -14 33t-33 14h-128q-27 0 -45 -18q-18 -19 -18 -45v-309h-64v421z" />
    <glyph glyph-name="o" unicode="o" horiz-adv-x="477" 
d="M55 335q0 39 28 68q28 28 68 28h174q40 0 68 -28q29 -29 29 -68v-249q0 -40 -28 -68q-29 -28 -69 -28h-174q-40 0 -68 28t-28 68v249zM117 95q0 -19 13 -33q14 -14 33 -14h150q19 0 33 14t14 33v231q0 19 -14 33t-33 14h-150q-19 0 -33 -14q-13 -14 -13 -33v-231z" />
    <glyph glyph-name="p" unicode="p" horiz-adv-x="479" 
d="M55 421h58l4 -38q24 48 79 48h132q40 0 68 -28q28 -29 28 -68v-249q0 -40 -28 -68t-68 -28h-131q-54 0 -78 48v-255h-64v638zM119 109q0 -26 18 -45q18 -18 45 -18h132q19 0 33 14t14 33v231q0 20 -14 34t-33 14h-132q-27 0 -45 -18q-18 -19 -18 -46v-199z" />
    <glyph glyph-name="q" unicode="q" horiz-adv-x="480" 
d="M425 -217h-64v255q-24 -48 -79 -48h-130q-41 0 -69 28t-28 68v249q0 39 28 68q28 28 69 28h132q54 0 78 -48l5 38h58v-638zM361 308q0 27 -18 46q-19 18 -46 18h-132q-19 0 -33 -14q-13 -14 -13 -34v-231q0 -19 13 -33q14 -14 33 -14h132q27 0 46 18q18 19 18 45v199z
" />
    <glyph glyph-name="r" unicode="r" horiz-adv-x="263" 
d="M55 421h58l5 -48q24 48 78 48h57v-59h-70q-27 0 -45 -18q-19 -19 -19 -46v-298h-64v421z" />
    <glyph glyph-name="s" unicode="s" horiz-adv-x="432" 
d="M45 135h59v-40q0 -19 14 -32q14 -14 34 -14h126q19 0 33 14t14 33v28q0 29 -28 37l-196 56q-56 15 -56 77v41q0 40 29 68q28 28 68 28h148q40 0 69 -28q28 -28 28 -68v-49h-59v40q0 19 -14 32q-14 14 -34 14h-126q-19 0 -33 -14q-13 -13 -13 -32v-28q0 -29 27 -37
l196 -56q56 -15 56 -77v-42q0 -40 -28 -68q-29 -28 -69 -28h-148q-40 0 -68 28q-29 28 -29 68v49z" />
    <glyph glyph-name="t" unicode="t" horiz-adv-x="292" 
d="M181 0q-40 0 -68 28t-28 68v272h-75v53h75l8 118h56v-118h122v-53h-122v-262q0 -19 13 -33q14 -14 33 -14h87v-59h-101z" />
    <glyph glyph-name="u" unicode="u" horiz-adv-x="472" 
d="M55 421h64v-324q0 -20 14 -34t33 -14h124q27 0 45 19q18 18 18 45v308h64v-421h-58l-5 38q-24 -48 -78 -48h-124q-40 0 -69 29q-28 28 -28 67v335z" />
    <glyph glyph-name="v" unicode="v" horiz-adv-x="400" 
d="M73 421l127 -330l126 330h69l-168 -421h-54l-168 421h68z" />
    <glyph glyph-name="w" unicode="w" horiz-adv-x="615" 
d="M74 421l105 -325l105 325h46l105 -325l106 325h69l-142 -421h-56l-105 322l-105 -322h-56l-141 421h69z" />
    <glyph glyph-name="x" unicode="x" horiz-adv-x="399" 
d="M163 212l-156 209h79l113 -159l113 159h80l-156 -209l158 -212h-79l-116 161l-116 -161h-78z" />
    <glyph glyph-name="y" unicode="y" horiz-adv-x="397" 
d="M78 -217l90 226l-163 412h70l126 -329l124 329h67l-246 -638h-68z" />
    <glyph glyph-name="z" unicode="z" horiz-adv-x="374" 
d="M25 0v28l225 334h-225v59h321v-29l-225 -331h228v-61h-324z" />
    <glyph glyph-name="braceleft" unicode="{" horiz-adv-x="264" 
d="M224 565h-20q-24 0 -40 -16t-16 -39v-175q0 -66 -54 -89q54 -22 54 -88v-175q0 -23 16 -39t40 -16h20v-51h-36q-43 0 -74 31t-31 74v186q0 52 -53 59v39q53 7 53 59v186q0 44 31 74q31 31 74 31h36v-51z" />
    <glyph glyph-name="bar" unicode="|" horiz-adv-x="256" 
d="M105 710h46v-900h-46v900z" />
    <glyph glyph-name="braceright" unicode="}" horiz-adv-x="264" 
d="M40 616h35q44 0 75 -31q31 -30 31 -74v-186q0 -52 53 -59v-39q-53 -7 -53 -59v-186q0 -44 -31 -74q-31 -31 -75 -31h-35v51h20q23 0 40 16q16 16 16 39v175q0 66 53 88q-53 23 -53 89v175q0 23 -16 39q-17 16 -40 16h-20v51z" />
    <glyph glyph-name="asciitilde" unicode="~" horiz-adv-x="574" 
d="M35 186q7 60 39 95q35 39 92 39q45 0 130 -44q86 -44 118 -44q35 0 59 26q22 25 27 62h39q-16 -134 -131 -134q-44 0 -130 44q-85 43 -118 43q-35 0 -59 -26q-22 -24 -27 -61h-39z" />
    <glyph glyph-name="Adieresis" unicode="&#xc4;" 
d="M162 752h55v-98h-55v98zM315 752h55v-98h-55v98zM235 568h63l224 -568h-70l-66 169h-240l-66 -169h-70zM366 226l-100 256l-100 -256h200z" />
    <glyph glyph-name="Aring" unicode="&#xc5;" 
d="M205 764q25 24 60 24t60 -24q25 -25 25 -59v-1q0 -35 -25 -60q-25 -24 -60 -24t-59 24q-25 25 -25 60t24 60zM233 672q13 -14 32 -14t32 14q14 13 14 32t-13 32q-14 14 -33 14t-32 -14q-14 -13 -14 -32t14 -32zM235 568h63l224 -568h-70l-66 169h-240l-66 -169h-70z
M366 226l-100 256l-100 -256h200z" />
    <glyph glyph-name="Ccedilla" unicode="&#xc7;" horiz-adv-x="533" 
d="M60 470q0 44 32 76t76 32h201q46 0 77 -32q32 -31 32 -76v-75h-66v64q0 23 -16 39q-17 17 -41 17h-171q-24 0 -40 -17q-17 -16 -17 -39v-350q0 -23 17 -39q16 -17 40 -17h171q24 0 41 17q16 16 16 39v62h66v-73q0 -44 -32 -76q-31 -32 -77 -32h-67l-63 -122h-45l45 122
h-71q-44 0 -76 32t-32 76v372z" />
    <glyph glyph-name="Eacute" unicode="&#xc9;" horiz-adv-x="476" 
d="M70 568h359v-60h-291v-192h224v-57h-224v-195h298v-64h-366v568zM227 620l54 145h66l-75 -145h-45z" />
    <glyph glyph-name="Ntilde" unicode="&#xd1;" horiz-adv-x="581" 
d="M149 644q3 39 23 64q22 28 57 28q26 0 68 -21t62 -21q35 0 43 42h29q-2 -39 -22 -64q-22 -28 -57 -28q-27 0 -68 21q-42 21 -62 21q-36 0 -43 -42h-30zM70 568h52l321 -320v320h68v-568h-68v159l-305 306v-465h-68v568z" />
    <glyph glyph-name="Odieresis" unicode="&#xd6;" horiz-adv-x="574" 
d="M183 752h55v-98h-55v98zM336 752h55v-98h-55v98zM60 470q0 44 32 76t77 32h236q45 0 77 -32t32 -76v-372q0 -44 -32 -76q-31 -32 -77 -32h-236q-45 0 -77 32t-32 76v372zM128 109q0 -23 16 -39q17 -17 40 -17h206q24 0 40 17q16 16 16 39v350q0 23 -16 39q-16 17 -40 17
h-206q-23 0 -40 -17q-16 -16 -16 -39v-350z" />
    <glyph glyph-name="Udieresis" unicode="&#xdc;" horiz-adv-x="554" 
d="M173 752h55v-98h-55v98zM326 752h55v-98h-55v98zM65 568h67v-459q0 -23 17 -39q16 -17 40 -17h175q24 0 41 17q16 16 16 39v459h68v-470q0 -44 -32 -76q-31 -32 -77 -32h-207q-44 0 -76 32t-32 76v470z" />
    <glyph glyph-name="aacute" unicode="&#xe1;" horiz-adv-x="452" 
d="M201 460l54 145h66l-75 -145h-45zM397 0h-58l-4 37q-26 -47 -80 -47h-108q-40 0 -69 29q-28 28 -28 67v54q0 57 56 73l200 54q27 8 27 36v23q0 19 -13 33q-14 14 -33 14h-123q-19 0 -34 -14q-14 -14 -14 -33v-42h-59v51q0 40 28 68q29 28 69 28h145q41 0 69 -28
q29 -28 29 -68v-335zM113 94q0 -19 13 -33q14 -14 33 -14h114q25 0 42 17t17 42v123q-7 -7 -20 -11l-172 -49q-27 -6 -27 -37v-38z" />
    <glyph glyph-name="agrave" unicode="&#xe0;" horiz-adv-x="452" 
d="M201 460l-75 145h66l54 -145h-45zM397 0h-58l-4 37q-26 -47 -80 -47h-108q-40 0 -69 29q-28 28 -28 67v54q0 57 56 73l200 54q27 8 27 36v23q0 19 -13 33q-14 14 -33 14h-123q-19 0 -34 -14q-14 -14 -14 -33v-42h-59v51q0 40 28 68q29 28 69 28h145q41 0 69 -28
q29 -28 29 -68v-335zM113 94q0 -19 13 -33q14 -14 33 -14h114q25 0 42 17t17 42v123q-7 -7 -20 -11l-172 -49q-27 -6 -27 -37v-38z" />
    <glyph glyph-name="acircumflex" unicode="&#xe2;" horiz-adv-x="452" 
d="M222 615h45l82 -145h-57l-48 99l-48 -99h-57zM397 0h-58l-4 37q-26 -47 -80 -47h-108q-40 0 -69 29q-28 28 -28 67v54q0 57 56 73l200 54q27 8 27 36v23q0 19 -13 33q-14 14 -33 14h-123q-19 0 -34 -14q-14 -14 -14 -33v-42h-59v51q0 40 28 68q29 28 69 28h145
q41 0 69 -28q29 -28 29 -68v-335zM113 94q0 -19 13 -33q14 -14 33 -14h114q25 0 42 17t17 42v123q-7 -7 -20 -11l-172 -49q-27 -6 -27 -37v-38z" />
    <glyph glyph-name="adieresis" unicode="&#xe4;" horiz-adv-x="452" 
d="M119 593h55v-98h-55v98zM272 593h55v-98h-55v98zM397 0h-58l-4 37q-26 -47 -80 -47h-108q-40 0 -69 29q-28 28 -28 67v54q0 57 56 73l200 54q27 8 27 36v23q0 19 -13 33q-14 14 -33 14h-123q-19 0 -34 -14q-14 -14 -14 -33v-42h-59v51q0 40 28 68q29 28 69 28h145
q41 0 69 -28q29 -28 29 -68v-335zM113 94q0 -19 13 -33q14 -14 33 -14h114q25 0 42 17t17 42v123q-7 -7 -20 -11l-172 -49q-27 -6 -27 -37v-38z" />
    <glyph glyph-name="atilde" unicode="&#xe3;" horiz-adv-x="452" 
d="M82 485q3 39 23 64q22 28 57 28q26 0 68 -21t62 -21q35 0 43 42h29q-2 -39 -22 -64q-22 -28 -57 -28q-27 0 -68 21q-42 21 -62 21q-36 0 -43 -42h-30zM397 0h-58l-4 37q-26 -47 -80 -47h-108q-40 0 -69 29q-28 28 -28 67v54q0 57 56 73l200 54q27 8 27 36v23q0 19 -13 33
q-14 14 -33 14h-123q-19 0 -34 -14q-14 -14 -14 -33v-42h-59v51q0 40 28 68q29 28 69 28h145q41 0 69 -28q29 -28 29 -68v-335zM113 94q0 -19 13 -33q14 -14 33 -14h114q25 0 42 17t17 42v123q-7 -7 -20 -11l-172 -49q-27 -6 -27 -37v-38z" />
    <glyph glyph-name="aring" unicode="&#xe5;" horiz-adv-x="452" 
d="M397 0h-58l-4 37q-26 -47 -80 -47h-108q-40 0 -69 29q-28 28 -28 67v54q0 57 56 73l200 54q27 8 27 36v23q0 19 -13 33q-14 14 -33 14h-123q-19 0 -34 -14q-14 -14 -14 -33v-42h-59v51q0 40 28 68q29 28 69 28h145q41 0 69 -28q29 -28 29 -68v-335zM113 94q0 -19 13 -33
q14 -14 33 -14h114q25 0 42 17t17 42v123q-7 -7 -20 -11l-172 -49q-27 -6 -27 -37v-38zM167 614q25 24 60 24t60 -24q25 -25 25 -59v-1q0 -35 -25 -60q-25 -24 -60 -24t-59 24q-25 25 -25 60t24 60zM195 522q13 -14 32 -14t32 14q14 13 14 32t-13 32q-14 14 -33 14t-32 -14
q-14 -13 -14 -32t14 -32z" />
    <glyph glyph-name="ccedilla" unicode="&#xe7;" horiz-adv-x="467" 
d="M55 335q0 40 29 68q28 28 68 28h168q41 0 69 -28t28 -68v-60h-58v51q0 19 -14 33q-15 14 -34 14h-147q-19 0 -33 -14t-14 -33v-231q0 -19 14 -33t33 -14h147q19 0 34 14q14 14 14 33v52h58v-61q0 -39 -28 -67q-28 -29 -69 -29h-53l-63 -122h-45l45 122h-52q-40 0 -68 29
q-29 28 -29 67v249z" />
    <glyph glyph-name="eacute" unicode="&#xe9;" horiz-adv-x="461" 
d="M216 460l54 145h66l-75 -145h-45zM55 335q0 40 29 68q28 28 68 28h162q41 0 69 -28t28 -68v-130h-294v-110q0 -19 14 -33t33 -14h141q19 0 34 14q14 14 14 33v49h58v-58q0 -39 -28 -67q-28 -29 -69 -29h-162q-40 0 -68 29q-29 28 -29 67v249zM353 251v75q0 19 -14 33
q-15 14 -34 14h-141q-19 0 -33 -14t-14 -33v-75h236z" />
    <glyph glyph-name="egrave" unicode="&#xe8;" horiz-adv-x="461" 
d="M216 460l-75 145h66l54 -145h-45zM55 335q0 40 29 68q28 28 68 28h162q41 0 69 -28t28 -68v-130h-294v-110q0 -19 14 -33t33 -14h141q19 0 34 14q14 14 14 33v49h58v-58q0 -39 -28 -67q-28 -29 -69 -29h-162q-40 0 -68 29q-29 28 -29 67v249zM353 251v75q0 19 -14 33
q-15 14 -34 14h-141q-19 0 -33 -14t-14 -33v-75h236z" />
    <glyph glyph-name="ecircumflex" unicode="&#xea;" horiz-adv-x="461" 
d="M344 460h-57l-48 99l-48 -99h-57l82 145h45zM55 335q0 40 29 68q28 28 68 28h162q41 0 69 -28t28 -68v-130h-294v-110q0 -19 14 -33t33 -14h141q19 0 34 14q14 14 14 33v49h58v-58q0 -39 -28 -67q-28 -29 -69 -29h-162q-40 0 -68 29q-29 28 -29 67v249zM353 251v75
q0 19 -14 33q-15 14 -34 14h-141q-19 0 -33 -14t-14 -33v-75h236z" />
    <glyph glyph-name="edieresis" unicode="&#xeb;" horiz-adv-x="461" 
d="M343 495h-55v98h55v-98zM190 495h-55v98h55v-98zM55 335q0 40 29 68q28 28 68 28h162q41 0 69 -28t28 -68v-130h-294v-110q0 -19 14 -33t33 -14h141q19 0 34 14q14 14 14 33v49h58v-58q0 -39 -28 -67q-28 -29 -69 -29h-162q-40 0 -68 29q-29 28 -29 67v249zM353 251v75
q0 19 -14 33q-15 14 -34 14h-141q-19 0 -33 -14t-14 -33v-75h236z" />
    <glyph glyph-name="iacute" unicode="&#xed;" horiz-adv-x="194" 
d="M75 460l54 145h66l-75 -145h-45zM65 421h64v-421h-64v421z" />
    <glyph glyph-name="igrave" unicode="&#xec;" horiz-adv-x="194" 
d="M75 460l-75 145h66l54 -145h-45zM65 421h64v-421h-64v421z" />
    <glyph glyph-name="icircumflex" unicode="&#xee;" horiz-adv-x="194" 
d="M75 605h45l82 -145h-57l-48 99l-48 -99h-57zM65 421h64v-421h-64v421z" />
    <glyph glyph-name="idieresis" unicode="&#xef;" horiz-adv-x="194" 
d="M13 593h55v-98h-55v98zM146 593h55v-98h-55v98zM65 421h64v-421h-64v421z" />
    <glyph glyph-name="ntilde" unicode="&#xf1;" horiz-adv-x="476" 
d="M97 485q3 39 23 64q22 28 57 28q26 0 68 -21t62 -21q35 0 43 42h29q-2 -39 -22 -64q-22 -28 -57 -28q-27 0 -68 21q-42 21 -62 21q-36 0 -43 -42h-30zM55 421h64v-38q24 48 78 48h127q40 0 69 -28q28 -28 28 -68v-335h-64v325q0 19 -14 33t-33 14h-128q-27 0 -45 -18
q-18 -19 -18 -45v-309h-64v421z" />
    <glyph glyph-name="oacute" unicode="&#xf3;" horiz-adv-x="477" 
d="M55 335q0 39 28 68q28 28 68 28h174q40 0 68 -28q29 -29 29 -68v-249q0 -40 -28 -68q-29 -28 -69 -28h-174q-40 0 -68 28t-28 68v249zM117 95q0 -19 13 -33q14 -14 33 -14h150q19 0 33 14t14 33v231q0 19 -14 33t-33 14h-150q-19 0 -33 -14q-13 -14 -13 -33v-231z
M216 460l54 145h66l-75 -145h-45z" />
    <glyph glyph-name="ograve" unicode="&#xf2;" horiz-adv-x="477" 
d="M422 86q0 -40 -28 -68t-68 -28h-174q-40 0 -69 28q-28 28 -28 68v249q0 39 29 68q28 28 68 28h174q40 0 68 -28q28 -29 28 -68v-249zM360 326q0 19 -13 33q-14 14 -33 14h-150q-19 0 -33 -14t-14 -33v-231q0 -19 14 -33t33 -14h150q19 0 33 14q13 14 13 33v231zM216 460
l-75 145h66l54 -145h-45z" />
    <glyph glyph-name="ocircumflex" unicode="&#xf4;" horiz-adv-x="477" 
d="M216 605h45l82 -145h-57l-48 99l-48 -99h-57zM55 335q0 39 28 68q28 28 68 28h174q40 0 68 -28q29 -29 29 -68v-249q0 -40 -28 -68q-29 -28 -69 -28h-174q-40 0 -68 28t-28 68v249zM117 95q0 -19 13 -33q14 -14 33 -14h150q19 0 33 14t14 33v231q0 19 -14 33t-33 14h-150
q-19 0 -33 -14q-13 -14 -13 -33v-231z" />
    <glyph glyph-name="odieresis" unicode="&#xf6;" horiz-adv-x="477" 
d="M134 593h55v-98h-55v98zM287 593h55v-98h-55v98zM55 335q0 39 28 68q28 28 68 28h174q40 0 68 -28q29 -29 29 -68v-249q0 -40 -28 -68q-29 -28 -69 -28h-174q-40 0 -68 28t-28 68v249zM117 95q0 -19 13 -33q14 -14 33 -14h150q19 0 33 14t14 33v231q0 19 -14 33t-33 14
h-150q-19 0 -33 -14q-13 -14 -13 -33v-231z" />
    <glyph glyph-name="otilde" unicode="&#xf5;" horiz-adv-x="477" 
d="M97 485q3 39 23 64q22 28 57 28q26 0 68 -21t62 -21q35 0 43 42h29q-2 -39 -22 -64q-22 -28 -57 -28q-27 0 -68 21q-42 21 -62 21q-36 0 -43 -42h-30zM55 335q0 39 28 68q28 28 68 28h174q40 0 68 -28q29 -29 29 -68v-249q0 -40 -28 -68q-29 -28 -69 -28h-174
q-40 0 -68 28t-28 68v249zM117 95q0 -19 13 -33q14 -14 33 -14h150q19 0 33 14t14 33v231q0 19 -14 33t-33 14h-150q-19 0 -33 -14q-13 -14 -13 -33v-231z" />
    <glyph glyph-name="uacute" unicode="&#xfa;" horiz-adv-x="472" 
d="M213 460l54 145h66l-75 -145h-45zM55 421h64v-324q0 -20 14 -34t33 -14h124q27 0 45 19q18 18 18 45v308h64v-421h-58l-5 38q-24 -48 -78 -48h-124q-40 0 -69 29q-28 28 -28 67v335z" />
    <glyph glyph-name="ugrave" unicode="&#xf9;" horiz-adv-x="472" 
d="M213 460l-75 145h66l54 -145h-45zM55 421h64v-324q0 -20 14 -34t33 -14h124q27 0 45 19q18 18 18 45v308h64v-421h-58l-5 38q-24 -48 -78 -48h-124q-40 0 -69 29q-28 28 -28 67v335z" />
    <glyph glyph-name="ucircumflex" unicode="&#xfb;" horiz-adv-x="472" 
d="M214 605h45l82 -145h-57l-48 99l-48 -99h-57zM55 421h64v-324q0 -20 14 -34t33 -14h124q27 0 45 19q18 18 18 45v308h64v-421h-58l-5 38q-24 -48 -78 -48h-124q-40 0 -69 29q-28 28 -28 67v335z" />
    <glyph glyph-name="udieresis" unicode="&#xfc;" horiz-adv-x="472" 
d="M131 593h55v-98h-55v98zM284 593h55v-98h-55v98zM55 421h64v-324q0 -20 14 -34t33 -14h124q27 0 45 19q18 18 18 45v308h64v-421h-58l-5 38q-24 -48 -78 -48h-124q-40 0 -69 29q-28 28 -28 67v335z" />
    <glyph glyph-name="dagger" unicode="&#x2020;" horiz-adv-x="416" 
d="M184 568h48l-1 -197h135v-40h-136l-3 -541h-39l-3 541h-135v40h135z" />
    <glyph glyph-name="degree" unicode="&#xb0;" horiz-adv-x="302" 
d="M40 510q0 28 20 48q19 20 47 20h87q28 0 48 -20t20 -48v-86q0 -28 -20 -48t-48 -20h-87q-28 0 -47 20q-20 20 -20 48v86zM87 430q0 -29 27 -29h73q28 0 28 29v74q0 29 -28 29h-73q-27 0 -27 -29v-74z" />
    <glyph glyph-name="cent" unicode="&#xa2;" horiz-adv-x="488" 
d="M60 408q0 40 28 68q29 29 69 29h74v63h29v-63h71q41 0 69 -29q28 -28 28 -68v-59h-59v50q0 19 -14 33q-15 14 -34 14h-61v-323h61q19 0 34 14q14 14 14 33v50h59v-59q0 -40 -28 -68q-28 -29 -69 -29h-71v-64h-29v64h-74q-40 0 -69 29q-28 28 -28 68v247zM122 170
q0 -19 14 -33t33 -14h62v323h-62q-19 0 -33 -14t-14 -33v-229z" />
    <glyph glyph-name="sterling" unicode="&#xa3;" horiz-adv-x="491" 
d="M30 63h50v178h-50v51h50v182q0 43 31 73q31 31 74 31h166q43 0 74 -31q31 -30 31 -73v-68h-65v57q0 23 -17 39q-17 17 -41 17h-129q-24 0 -40 -17q-16 -16 -16 -39v-171h183v-51h-183v-178h308v-63h-426v63z" />
    <glyph glyph-name="section" unicode="&#xa7;" horiz-adv-x="394" 
d="M40 -57h43v-54q0 -27 20 -46q19 -19 46 -19h96q27 0 47 19q19 19 19 46v50q0 32 -40 55l-167 100q-64 34 -64 87v293q0 43 30 73q30 31 73 31h107q43 0 74 -31q30 -30 30 -73v-58h-43v54q0 26 -20 46q-20 19 -47 19h-95q-27 0 -47 -19q-19 -19 -19 -46v-51q0 -33 40 -54
l166 -101q65 -33 65 -87v-293q0 -42 -30 -72q-30 -31 -73 -31h-107q-43 0 -74 31q-30 30 -30 72v59zM82 185q0 -33 45 -57l154 -94q19 -10 30 -23v162q0 33 -44 57l-155 94q-15 8 -30 23v-162z" />
    <glyph glyph-name="bullet" unicode="&#x2022;" horiz-adv-x="325" 
d="M83 366q32 33 79 33t80 -33t33 -80t-33 -80t-79 -33q-47 0 -80 33t-33 80t33 80z" />
    <glyph glyph-name="paragraph" unicode="&#xb6;" horiz-adv-x="403" 
d="M10 446q0 50 36 86t86 36h221v-628h-28v592h-58v-532h-37v185h-98q-50 0 -86 36t-36 86v139z" />
    <glyph glyph-name="germandbls" unicode="&#xdf;" horiz-adv-x="460" 
d="M55 482q0 39 28 68q28 28 68 28h143q40 0 68 -28q28 -29 28 -68v-106q0 -64 -60 -85q30 -5 52 -29q23 -26 23 -60v-106q0 -40 -28 -68t-69 -28h-149v58h138q19 0 33 14q13 14 13 33v104q0 24 -16 40t-41 16h-125v49h110q25 0 41 16q17 16 17 39v104q0 19 -14 33t-33 14
h-119q-19 0 -33 -14q-13 -14 -13 -33v-533h-62v542z" />
    <glyph glyph-name="registered" unicode="&#xae;" horiz-adv-x="502" 
d="M95 513q65 65 156 65q92 0 156 -65q65 -64 65 -156q0 -91 -65 -156q-64 -65 -156 -65q-91 0 -156 65t-65 156q0 92 65 156zM112 218q57 -58 139 -58q81 0 138 58q57 57 57 139t-57 139q-57 58 -138 58q-82 0 -139 -58q-57 -57 -57 -139t57 -139zM171 474h111q20 0 35 -15
t15 -35v-46q0 -44 -43 -49l63 -89h-42l-61 87h-43v-87h-35v234zM268 357q28 0 28 28v30q0 28 -28 28h-62v-86h62z" />
    <glyph glyph-name="copyright" unicode="&#xa9;" horiz-adv-x="648" 
d="M116 492q87 86 208 86q122 0 208 -86t86 -208q0 -121 -86 -208q-86 -86 -208 -86q-121 0 -208 86q-86 87 -86 208q0 122 86 208zM136 95q79 -80 188 -80t188 80q78 79 78 189t-78 189q-79 80 -188 80t-188 -80q-79 -79 -79 -189t79 -189zM203 379q0 28 20 47q19 20 47 20
h104q28 0 48 -20q19 -19 19 -47v-35h-42v25q0 34 -36 34h-81q-34 0 -34 -34v-170q0 -35 34 -35h81q36 0 36 35v24h42v-34q0 -28 -19 -47q-20 -20 -48 -20h-104q-28 0 -47 20q-20 19 -20 47v190z" />
    <glyph glyph-name="trademark" unicode="&#x2122;" horiz-adv-x="811" 
d="M30 568h306v-49h-127v-322h-53v322h-126v49zM396 568h42l150 -305l151 305h42v-371h-53v249l-121 -249h-36l-122 249v-249h-53v371z" />
    <glyph glyph-name="acute" unicode="&#xb4;" horiz-adv-x="350" 
d="M115 443l54 145h66l-75 -145h-45z" />
    <glyph glyph-name="dieresis" unicode="&#xa8;" horiz-adv-x="350" 
d="M71 575h55v-98h-55v98zM224 575h55v-98h-55v98z" />
    <glyph glyph-name="AE" unicode="&#xc6;" horiz-adv-x="752" 
d="M330 568h375v-60h-292v-192h225v-57h-225v-195h299v-64h-367v163h-177l-92 -163h-76zM345 220v253l-145 -253h145z" />
    <glyph glyph-name="Oslash" unicode="&#xd8;" horiz-adv-x="574" 
d="M128 109q0 -19 13 -35l267 439q-6 2 -17 2h-206q-24 0 -40 -17q-17 -16 -17 -39v-350zM167 56q8 -3 17 -3h206q23 0 40 17q16 16 16 39v350q0 20 -13 36zM60 470q0 44 32 76t77 32h236q22 0 37 -7l35 57l27 -18l-33 -54q43 -33 43 -86v-372q0 -44 -32 -76
q-31 -32 -77 -32h-236q-23 0 -38 7l-34 -56l-27 17l33 54q-43 32 -43 86v372z" />
    <glyph glyph-name="yen" unicode="&#xa5;" horiz-adv-x="503" 
d="M73 150h145v67h-145v38h129l-192 313h77l164 -272l165 272h77l-193 -313h130v-38h-145v-67h145v-38h-145v-112h-67v112h-145v38z" />
    <glyph glyph-name="ae" unicode="&#xe6;" horiz-adv-x="739" 
d="M631 251v74q0 20 -14 34t-34 14h-141q-19 0 -33 -14t-14 -34v-74h236zM50 140q0 57 56 73l200 54q27 8 27 36v22q0 20 -13 34q-14 14 -33 14h-123q-19 0 -34 -14q-14 -14 -14 -34v-41h-59v51q0 39 28 68q29 28 69 28h133q47 0 76 -41q29 41 76 41h153q41 0 69 -28
q28 -29 28 -68v-130h-294v-113q4 -44 47 -44h141q19 0 34 14q14 14 14 33v49h58v-58q0 -40 -28 -68t-69 -28h-153q-48 0 -76 40q-28 -40 -76 -40h-140q-40 0 -69 28q-28 28 -28 68v54zM113 94q0 -19 13 -33q14 -14 33 -14h114q25 0 42 17t17 42v123q-7 -7 -20 -11l-172 -49
q-27 -6 -27 -37v-38z" />
    <glyph glyph-name="oslash" unicode="&#xf8;" horiz-adv-x="477" 
d="M55 335q0 39 28 68q28 28 68 28h174q11 0 29 -4l33 54l25 -15l-32 -52q42 -30 42 -79v-249q0 -40 -28 -68q-29 -28 -69 -28h-174q-16 0 -28 4l-33 -54l-26 15l32 52q-41 28 -41 79v249zM156 49q2 -1 7 -1h150q19 0 33 14t14 33v231q0 19 -14 33zM117 95q0 -18 13 -33
l191 310q-3 1 -8 1h-150q-19 0 -33 -14q-13 -14 -13 -33v-231z" />
    <glyph glyph-name="questiondown" unicode="&#xbf;" horiz-adv-x="460" 
d="M300 343h-79v78h79v-78zM410 -53q0 -43 -31 -73q-31 -31 -74 -31h-170q-43 0 -74 31q-31 30 -31 73v72q0 61 60 90l103 48q38 17 38 54v75h61v-86q0 -60 -63 -91l-97 -45q-35 -16 -35 -53v-49q0 -23 17 -39q16 -17 40 -17h134q23 0 40 17q17 16 17 39v53h65v-68z" />
    <glyph glyph-name="exclamdown" unicode="&#xa1;" horiz-adv-x="223" 
d="M151 421v-79h-79v79h79zM141 285l12 -432h-83l13 432h58z" />
    <glyph glyph-name="florin" unicode="&#x192;" horiz-adv-x="346" 
d="M-162 -165h89q47 0 59 42l131 491h-68v53h82l35 131q23 86 107 86h101v-62h-89q-48 0 -58 -42l-30 -113h123v-53h-137l-136 -509q-10 -37 -39 -61q-30 -25 -68 -25h-102v62z" />
    <glyph glyph-name="uni0394" unicode="&#x394;" 
d="M235 568h63l224 -568h-512zM102 57h328l-164 425z" />
    <glyph glyph-name="uni0394" unicode="&#x2206;" 
d="M235 568h63l224 -568h-512zM102 57h328l-164 425z" />
    <glyph glyph-name="guillemotleft" unicode="&#xab;" horiz-adv-x="371" 
d="M120 419h69l-91 -179l91 -180h-69l-90 180zM262 419h69l-91 -179l91 -180h-69l-90 180z" />
    <glyph glyph-name="guillemotright" unicode="&#xbb;" horiz-adv-x="371" 
d="M341 240l-90 -180h-69l91 180l-91 179h69zM199 240l-90 -180h-69l91 180l-91 179h69z" />
    <glyph glyph-name="ellipsis" unicode="&#x2026;" horiz-adv-x="714" 
d="M318 0v79h78v-79h-78zM556 0v79h78v-79h-78zM80 0v79h78v-79h-78z" />
    <glyph glyph-name="uni00A0" unicode="&#xa0;" horiz-adv-x="180" 
 />
    <glyph glyph-name="Agrave" unicode="&#xc0;" 
d="M244 620l-75 145h66l54 -145h-45zM235 568h63l224 -568h-70l-66 169h-240l-66 -169h-70zM366 226l-100 256l-100 -256h200z" />
    <glyph glyph-name="Atilde" unicode="&#xc3;" 
d="M125 644q3 39 23 64q22 28 57 28q26 0 68 -21t62 -21q35 0 43 42h29q-2 -39 -22 -64q-22 -28 -57 -28q-27 0 -68 21q-42 21 -62 21q-36 0 -43 -42h-30zM235 568h63l224 -568h-70l-66 169h-240l-66 -169h-70zM366 226l-100 256l-100 -256h200z" />
    <glyph glyph-name="Otilde" unicode="&#xd5;" horiz-adv-x="574" 
d="M146 644q3 39 23 64q22 28 57 28q26 0 68 -21t62 -21q35 0 43 42h29q-2 -39 -22 -64q-22 -28 -57 -28q-27 0 -68 21q-42 21 -62 21q-36 0 -43 -42h-30zM60 470q0 44 32 76t77 32h236q45 0 77 -32t32 -76v-372q0 -44 -32 -76q-31 -32 -77 -32h-236q-45 0 -77 32t-32 76
v372zM128 109q0 -23 16 -39q17 -17 40 -17h206q24 0 40 17q16 16 16 39v350q0 23 -16 39q-16 17 -40 17h-206q-23 0 -40 -17q-16 -16 -16 -39v-350z" />
    <glyph glyph-name="OE" unicode="&#x152;" horiz-adv-x="853" 
d="M60 470q0 44 32 76t77 32h191q57 0 90 -48l1 38h355v-61h-292v-191h225v-57h-225v-196h299v-63h-362l-1 37q-34 -47 -90 -47h-191q-45 0 -77 32t-32 76v372zM128 109q0 -23 16 -39q17 -17 40 -17h192q30 0 51 20q20 21 20 50v324q-2 29 -22 48q-20 20 -49 20h-192
q-23 0 -40 -17q-16 -16 -16 -39v-350z" />
    <glyph glyph-name="oe" unicode="&#x153;" horiz-adv-x="766" 
d="M55 335q0 39 28 68q29 28 69 28h163q47 0 76 -41q29 41 77 41h151q40 0 69 -28q28 -29 28 -68v-116h-294v-127q1 -18 14 -31q14 -13 33 -13h140q19 0 34 14q14 14 14 33v48h59v-57q0 -40 -28 -68q-29 -28 -69 -28h-151q-49 0 -77 40q-28 -40 -76 -40h-163q-40 0 -69 28
q-28 28 -28 68v249zM117 95q0 -22 17 -34q11 -13 38 -13h138q31 0 45 28q5 10 5 24v225q0 23 -17 35q-11 13 -38 13h-141q-30 0 -42 -28q-5 -10 -5 -25v-225zM657 251v74q0 20 -14 34t-34 14h-140q-19 0 -33 -14t-14 -34v-74h235z" />
    <glyph glyph-name="endash" unicode="&#x2013;" horiz-adv-x="380" 
d="M0 238h380v-58h-380v58z" />
    <glyph glyph-name="emdash" unicode="&#x2014;" horiz-adv-x="760" 
d="M0 238h760v-58h-760v58z" />
    <glyph glyph-name="quotedblleft" unicode="&#x201c;" horiz-adv-x="395" 
d="M80 568h78v-78h-30l32 -157h-23l-57 171v64zM238 568h78v-78h-29l31 -157h-22l-58 171v64z" />
    <glyph glyph-name="quotedblright" unicode="&#x201d;" horiz-adv-x="395" 
d="M315 504l-57 -171h-23l32 157h-30v78h78v-64zM157 504l-58 -171h-22l31 157h-29v78h78v-64z" />
    <glyph glyph-name="quoteleft" unicode="&#x2018;" horiz-adv-x="237" 
d="M80 568h78v-78h-30l32 -157h-23l-57 171v64z" />
    <glyph glyph-name="quoteright" unicode="&#x2019;" horiz-adv-x="237" 
d="M157 504l-58 -171h-22l31 157h-29v78h78v-64z" />
    <glyph glyph-name="divide" unicode="&#xf7;" horiz-adv-x="469" 
d="M201 90h67v-67h-67v67zM50 269h369v-59h-369v59zM201 455h67v-67h-67v67z" />
    <glyph glyph-name="ydieresis" unicode="&#xff;" horiz-adv-x="397" 
d="M94 593h55v-98h-55v98zM247 593h55v-98h-55v98zM78 -217l90 226l-163 412h70l126 -329l124 329h67l-246 -638h-68z" />
    <glyph glyph-name="Ydieresis" unicode="&#x178;" horiz-adv-x="503" 
d="M147 752h55v-98h-55v98zM300 752h55v-98h-55v98zM10 568h77l164 -272l165 272h77l-208 -340v-228h-67v228z" />
    <glyph glyph-name="fraction" unicode="&#x2044;" horiz-adv-x="223" 
d="M291 587h57l-420 -587h-53z" />
    <glyph glyph-name="Euro" unicode="&#x20ac;" horiz-adv-x="543" 
d="M30 224v34h50v53h-50v33h50v126q0 44 32 76t77 32h210q46 0 77 -32q32 -31 32 -76v-71h-65v60q0 23 -16 39q-17 17 -40 17h-183q-23 0 -40 -17q-16 -16 -16 -39v-115h243l-10 -33h-233v-53h212l-9 -34h-203v-115q0 -23 16 -39q17 -17 40 -17h183q23 0 40 17q16 16 16 39
v59h65v-70q0 -44 -32 -76q-31 -32 -77 -32h-210q-45 0 -77 32t-32 76v126h-50z" />
    <glyph glyph-name="guilsinglleft" unicode="&#x2039;" horiz-adv-x="229" 
d="M120 419h69l-91 -179l91 -180h-69l-90 180z" />
    <glyph glyph-name="guilsinglright" unicode="&#x203a;" horiz-adv-x="229" 
d="M199 240l-90 -180h-69l91 180l-91 179h69z" />
    <glyph glyph-name="uniFB01" unicode="&#xfb01;" horiz-adv-x="435" 
d="M85 368h-75v53h75v121q0 40 28 68t68 28h132v-56h-118q-19 0 -33 -14q-13 -14 -13 -33v-114h221v-421h-64v368h-157v-499q0 -40 -29 -68q-28 -28 -68 -28h-71v56h57q19 0 33 14t14 33v492z" />
    <glyph glyph-name="uniFB02" unicode="&#xfb02;" horiz-adv-x="495" 
d="M85 368h-75v53h75v121q0 40 29 68q28 28 68 28h217v-531q0 -19 14 -33t33 -14h39v-60h-53q-40 0 -69 29q-28 28 -28 67v486h-139q-19 0 -33 -14t-14 -33v-114h124v-53h-124v-499q0 -40 -29 -68q-28 -28 -68 -28h-71v56h57q19 0 33 14t14 33v492z" />
    <glyph glyph-name="daggerdbl" unicode="&#x2021;" horiz-adv-x="418" 
d="M233 566l-1 -197h136v-41h-136l-1 -151l1 -152h136v-40h-136l1 -197h-48l1 197h-136v40h136l1 152l-1 151h-136v41h136l-1 197h48z" />
    <glyph glyph-name="periodcentered" unicode="&#xb7;" horiz-adv-x="238" 
d="M80 302v79h78v-79h-78z" />
    <glyph glyph-name="quotesinglbase" unicode="&#x201a;" horiz-adv-x="238" 
d="M77 -157l32 157h-29v79h78v-64l-58 -172h-23z" />
    <glyph glyph-name="quotedblbase" unicode="&#x201e;" horiz-adv-x="396" 
d="M77 -157l32 157h-29v79h78v-64l-58 -172h-23zM235 -157l32 157h-29v79h78v-64l-58 -172h-23z" />
    <glyph glyph-name="perthousand" unicode="&#x2030;" horiz-adv-x="755" 
d="M274 144q0 29 20 49t48 20h62q28 0 48 -20q20 -21 20 -49v-85q0 -28 -20 -48t-48 -20h-62q-28 0 -48 20t-20 48v85zM40 510q0 28 20 48q19 20 47 20h63q28 0 48 -20t20 -48v-85q0 -28 -20 -49q-20 -20 -48 -20h-63q-28 0 -47 20q-20 20 -20 49v85zM87 431q0 -30 27 -30
h49q28 0 28 30v73q0 29 -28 29h-49q-27 0 -27 -29v-73zM98 0l267 568h48l-267 -568h-48zM321 65q0 -29 27 -29h49q28 0 28 29v73q0 30 -28 30h-49q-27 0 -27 -30v-73zM517 144q0 29 20 49t48 20h62q28 0 48 -20q20 -21 20 -49v-85q0 -28 -20 -48t-48 -20h-62q-28 0 -48 20
t-20 48v85zM564 65q0 -29 27 -29h49q28 0 28 29v73q0 30 -28 30h-49q-27 0 -27 -30v-73z" />
    <glyph glyph-name="Acircumflex" unicode="&#xc2;" 
d="M244 766h45l82 -145h-57l-48 99l-48 -99h-57zM235 568h63l224 -568h-70l-66 169h-240l-66 -169h-70zM366 226l-100 256l-100 -256h200z" />
    <glyph glyph-name="Ecircumflex" unicode="&#xca;" horiz-adv-x="476" 
d="M228 766h45l82 -145h-57l-48 99l-48 -99h-57zM70 568h359v-60h-291v-192h224v-57h-224v-195h298v-64h-366v568z" />
    <glyph glyph-name="Aacute" unicode="&#xc1;" 
d="M243 620l54 145h66l-75 -145h-45zM235 568h63l224 -568h-70l-66 169h-240l-66 -169h-70zM366 226l-100 256l-100 -256h200z" />
    <glyph glyph-name="Edieresis" unicode="&#xcb;" horiz-adv-x="476" 
d="M70 568h359v-60h-291v-192h224v-57h-224v-195h298v-64h-366v568zM147 752h55v-98h-55v98zM300 752h55v-98h-55v98z" />
    <glyph glyph-name="Egrave" unicode="&#xc8;" horiz-adv-x="476" 
d="M70 568h359v-60h-291v-192h224v-57h-224v-195h298v-64h-366v568zM227 620l-75 145h66l54 -145h-45z" />
    <glyph glyph-name="Iacute" unicode="&#xcd;" horiz-adv-x="219" 
d="M87 620l54 145h66l-75 -145h-45zM75 568h69v-568h-69v568z" />
    <glyph glyph-name="Icircumflex" unicode="&#xce;" horiz-adv-x="219" 
d="M87 766h45l82 -145h-57l-48 99l-48 -99h-57zM74 568h69v-568h-69v568z" />
    <glyph glyph-name="Idieresis" unicode="&#xcf;" horiz-adv-x="219" 
d="M6 752h55v-98h-55v98zM159 752h55v-98h-55v98zM75 568h69v-568h-69v568z" />
    <glyph glyph-name="Igrave" unicode="&#xcc;" horiz-adv-x="219" 
d="M88 620l-75 145h66l54 -145h-45zM75 568h69v-568h-69v568z" />
    <glyph glyph-name="Oacute" unicode="&#xd3;" horiz-adv-x="574" 
d="M60 470q0 44 32 76t77 32h236q45 0 77 -32t32 -76v-372q0 -44 -32 -76q-31 -32 -77 -32h-236q-45 0 -77 32t-32 76v372zM128 109q0 -23 16 -39q17 -17 40 -17h206q24 0 40 17q16 16 16 39v350q0 23 -16 39q-16 17 -40 17h-206q-23 0 -40 -17q-16 -16 -16 -39v-350z
M264 620l54 145h66l-75 -145h-45z" />
    <glyph glyph-name="Ocircumflex" unicode="&#xd4;" horiz-adv-x="574" 
d="M265 766h45l82 -145h-57l-48 99l-48 -99h-57zM60 470q0 44 32 76t77 32h236q45 0 77 -32t32 -76v-372q0 -44 -32 -76q-31 -32 -77 -32h-236q-45 0 -77 32t-32 76v372zM128 109q0 -23 16 -39q17 -17 40 -17h206q24 0 40 17q16 16 16 39v350q0 23 -16 39q-16 17 -40 17
h-206q-23 0 -40 -17q-16 -16 -16 -39v-350z" />
    <glyph glyph-name="Ograve" unicode="&#xd2;" horiz-adv-x="574" 
d="M514 98q0 -44 -32 -76q-31 -32 -77 -32h-236q-45 0 -77 32t-32 76v372q0 44 32 76t77 32h236q45 0 77 -32t32 -76v-372zM446 459q0 23 -16 39q-17 17 -40 17h-206q-24 0 -40 -17q-16 -16 -16 -39v-350q0 -23 16 -39q16 -17 40 -17h206q23 0 40 17q16 16 16 39v350z
M265 620l-75 145h66l54 -145h-45z" />
    <glyph glyph-name="Uacute" unicode="&#xda;" horiz-adv-x="554" 
d="M254 620l54 145h66l-75 -145h-45zM65 568h67v-459q0 -23 17 -39q16 -17 40 -17h175q24 0 41 17q16 16 16 39v459h68v-470q0 -44 -32 -76q-31 -32 -77 -32h-207q-44 0 -76 32t-32 76v470z" />
    <glyph glyph-name="Ucircumflex" unicode="&#xdb;" horiz-adv-x="554" 
d="M255 766h45l82 -145h-57l-48 99l-48 -99h-57zM65 568h67v-459q0 -23 17 -39q16 -17 40 -17h175q24 0 41 17q16 16 16 39v459h68v-470q0 -44 -32 -76q-31 -32 -77 -32h-207q-44 0 -76 32t-32 76v470z" />
    <glyph glyph-name="Ugrave" unicode="&#xd9;" horiz-adv-x="554" 
d="M255 620l-75 145h66l54 -145h-45zM65 568h67v-459q0 -23 17 -39q16 -17 40 -17h175q24 0 41 17q16 16 16 39v459h68v-470q0 -44 -32 -76q-31 -32 -77 -32h-207q-44 0 -76 32t-32 76v470z" />
    <glyph glyph-name="dotlessi" unicode="&#x131;" horiz-adv-x="194" 
d="M65 421h64v-421h-64v421z" />
    <glyph glyph-name="circumflex" unicode="&#x2c6;" horiz-adv-x="350" 
d="M153 588h45l82 -145h-57l-48 99l-48 -99h-57z" />
    <glyph glyph-name="tilde" unicode="&#x2dc;" horiz-adv-x="350" 
d="M34 465q3 39 23 64q22 28 57 28q26 0 68 -21t62 -21q35 0 43 42h29q-2 -39 -22 -64q-22 -28 -57 -28q-27 0 -68 21q-42 21 -62 21q-36 0 -43 -42h-30z" />
    <glyph glyph-name="macron" unicode="&#xaf;" horiz-adv-x="350" 
d="M27 531h296v-50h-296v50z" />
    <glyph glyph-name="breve" unicode="&#x2d8;" horiz-adv-x="350" 
d="M107 576q0 -32 21 -53q20 -20 47 -20t47 19q21 20 22 54h48q-1 -58 -37 -93q-34 -32 -80 -32q-47 0 -81 34q-36 36 -36 91h49z" />
    <glyph glyph-name="dotaccent" unicode="&#x2d9;" horiz-adv-x="350" 
d="M147 575h55v-98h-55v98z" />
    <glyph glyph-name="ring" unicode="&#x2da;" horiz-adv-x="350" 
d="M114 586q25 24 60 24t60 -24q25 -25 25 -59v-1q0 -35 -25 -60q-25 -24 -60 -24t-59 24q-25 25 -25 60t24 60zM142 494q13 -14 32 -14t32 14q14 13 14 32t-13 32q-14 14 -33 14t-32 -14q-14 -13 -14 -32t14 -32z" />
    <glyph glyph-name="cedilla" unicode="&#xb8;" horiz-adv-x="350" 
d="M169 13h66l-75 -145h-45z" />
    <glyph glyph-name="hungarumlaut" unicode="&#x2dd;" horiz-adv-x="350" 
d="M228 588h66l-75 -145h-45zM110 588h66l-76 -145h-44z" />
    <glyph glyph-name="ogonek" unicode="&#x2db;" horiz-adv-x="350" 
d="M181 13l54 -145h-44l-76 145h66z" />
    <glyph glyph-name="caron" unicode="&#x2c7;" horiz-adv-x="350" 
d="M127 588l48 -99l48 99h57l-82 -145h-45l-83 145h57z" />
    <glyph glyph-name="space" unicode=" " horiz-adv-x="180" 
 />
    <glyph glyph-name="glyph221" horiz-adv-x="437" 
d="M107 576q0 -32 21 -53q20 -20 47 -20t47 19q21 20 22 54h48q-1 -58 -37 -93q-34 -32 -80 -32q-47 0 -81 34q-36 36 -36 91h49zM-303 482q3 39 23 64q22 28 57 28q26 0 68 -21t62 -21q35 0 43 42h29q-2 -39 -22 -64q-22 -28 -57 -28q-27 0 -68 21q-42 21 -62 21
q-36 0 -43 -42h-30zM419 592h45l82 -145h-57l-48 99l-48 -99h-57zM-258 352q0 19 17 33t43 14h77q26 0 43 -14t17 -33v-28q0 -28 -33 -41l-48 -19q-11 -4 -11 -14v-36h-51v41q0 27 35 41l44 17q10 4 10 14v19q0 6 -4 9q-5 5 -10 5h-62q-5 0 -10 -5q-4 -3 -4 -9v-28h-53v34z
M142 609l-75 145h66l54 -145h-45zM142 609l-75 145h66l54 -145h-45zM142 609l-75 145h66l54 -145h-45zM-258 352q0 19 17 33t43 14h77q26 0 43 -14t17 -33v-28q0 -28 -33 -41l-48 -19q-11 -4 -11 -14v-36h-51v41q0 27 35 41l44 17q10 4 10 14v19q0 6 -4 9q-5 5 -10 5h-62
q-5 0 -10 -5q-4 -3 -4 -9v-28h-53v34zM173 -51h80v-89h-80v89zM173 -51h80v-89h-80v89zM173 -51h80v-89h-80v89z" />
    <glyph glyph-name="glyph222" horiz-adv-x="460" 
d="M160 98h129v-118h-129v118zM50 474q0 50 38 88q37 36 92 36h170q55 0 92 -36q38 -38 38 -88v-72q0 -72 -73 -107l-103 -48q-25 -12 -25 -37v-95h-111v106q0 71 76 108l97 45q22 10 22 36v49q0 16 -9 25q-11 11 -23 11h-134q-11 0 -23 -11q-9 -9 -9 -25v-73h-115v88z" />
    <glyph glyph-name="glyph223" 
d="M235 568h63l224 -568h-70l-66 169h-240l-66 -169h-70zM366 226l-100 256l-100 -256h200zM250 734h45l82 -145h-57l-48 99l-48 -99h-57z" />
    <glyph glyph-name="glyph224" horiz-adv-x="476" 
d="M70 568h359v-60h-291v-192h224v-57h-224v-195h298v-64h-366v568z" />
    <glyph glyph-name="glyph225" horiz-adv-x="574" 
d="M60 470q0 44 32 76t77 32h236q45 0 77 -32t32 -76v-372q0 -44 -32 -76q-31 -32 -77 -32h-236q-45 0 -77 32t-32 76v372zM128 109q0 -23 16 -39q17 -17 40 -17h206q24 0 40 17q16 16 16 39v350q0 23 -16 39q-16 17 -40 17h-206q-23 0 -40 -17q-16 -16 -16 -39v-350z" />
    <glyph glyph-name="glyph226" horiz-adv-x="554" 
d="M65 568h67v-459q0 -23 17 -39q16 -17 40 -17h175q24 0 41 17q16 16 16 39v459h68v-470q0 -44 -32 -76q-31 -32 -77 -32h-207q-44 0 -76 32t-32 76v470z" />
    <glyph glyph-name="glyph227" horiz-adv-x="452" 
d="M397 0h-58l-4 37q-26 -47 -80 -47h-108q-40 0 -69 29q-28 28 -28 67v54q0 57 56 73l200 54q27 8 27 36v23q0 19 -13 33q-14 14 -33 14h-123q-19 0 -34 -14q-14 -14 -14 -33v-42h-59v51q0 40 28 68q29 28 69 28h145q41 0 69 -28q29 -28 29 -68v-335zM113 94q0 -19 13 -33
q14 -14 33 -14h114q25 0 42 17t17 42v123q-7 -7 -20 -11l-172 -49q-27 -6 -27 -37v-38z" />
    <glyph glyph-name="glyph228" horiz-adv-x="461" 
d="M55 335q0 40 29 68q28 28 68 28h162q41 0 69 -28t28 -68v-130h-294v-110q0 -19 14 -33t33 -14h141q19 0 34 14q14 14 14 33v49h58v-58q0 -39 -28 -67q-28 -29 -69 -29h-162q-40 0 -68 29q-29 28 -29 67v249zM353 251v75q0 19 -14 33q-15 14 -34 14h-141q-19 0 -33 -14
t-14 -33v-75h236z" />
    <glyph glyph-name="glyph229" horiz-adv-x="477" 
d="M55 335q0 39 28 68q28 28 68 28h174q40 0 68 -28q29 -29 29 -68v-249q0 -40 -28 -68q-29 -28 -69 -28h-174q-40 0 -68 28t-28 68v249zM117 95q0 -19 13 -33q14 -14 33 -14h150q19 0 33 14t14 33v231q0 19 -14 33t-33 14h-150q-19 0 -33 -14q-13 -14 -13 -33v-231z" />
    <glyph glyph-name="glyph230" horiz-adv-x="472" 
d="M55 421h64v-324q0 -20 14 -34t33 -14h124q27 0 45 19q18 18 18 45v308h64v-421h-58l-5 38q-24 -48 -78 -48h-124q-40 0 -69 29q-28 28 -28 67v335z" />
    <glyph glyph-name="Abreve" unicode="&#x102;" 
d="M235 568h63l224 -568h-70l-66 169h-240l-66 -169h-70zM366 226l-100 256l-100 -256h200zM201 725q0 -32 21 -53q20 -20 47 -20t47 19q21 20 22 54h48q-1 -58 -37 -93q-34 -32 -80 -32q-47 0 -81 34q-36 36 -36 91h49z" />
    <glyph glyph-name="abreve" unicode="&#x103;" horiz-adv-x="452" 
d="M397 0h-58l-4 37q-26 -47 -80 -47h-108q-40 0 -69 29q-28 28 -28 67v54q0 57 56 73l200 54q27 8 27 36v23q0 19 -13 33q-14 14 -33 14h-123q-19 0 -34 -14q-14 -14 -14 -33v-42h-59v51q0 40 28 68q29 28 69 28h145q41 0 69 -28q29 -28 29 -68v-335zM113 94q0 -19 13 -33
q14 -14 33 -14h114q25 0 42 17t17 42v123q-7 -7 -20 -11l-172 -49q-27 -6 -27 -37v-38zM163 597q0 -32 20 -53q20 -20 48 -20q27 0 46 19q22 20 23 54h48q-1 -58 -38 -93q-33 -32 -79 -32q-47 0 -81 34q-36 36 -36 91h49z" />
    <glyph glyph-name="uni1EA0" unicode="&#x1ea0;" 
d="M235 568h63l224 -568h-70l-66 169h-240l-66 -169h-70zM366 226l-100 256l-100 -256h200zM247 -35h80v-89h-80v89z" />
    <glyph glyph-name="uni1EA1" unicode="&#x1ea1;" horiz-adv-x="455" 
d="M397 0h-58l-4 37q-26 -47 -80 -47h-108q-40 0 -69 29q-28 28 -28 67v54q0 57 56 73l200 54q27 8 27 36v23q0 19 -13 33q-14 14 -33 14h-123q-19 0 -34 -14q-14 -14 -14 -33v-42h-59v51q0 40 28 68q29 28 69 28h145q41 0 69 -28q29 -28 29 -68v-335zM113 94q0 -19 13 -33
q14 -14 33 -14h114q25 0 42 17t17 42v123q-7 -7 -20 -11l-172 -49q-27 -6 -27 -37v-38zM176 -65h80v-89h-80v89z" />
    <glyph glyph-name="uni1EA2" unicode="&#x1ea2;" horiz-adv-x="553" 
d="M235 568h63l224 -568h-70l-66 169h-240l-66 -169h-70zM366 226l-100 256l-100 -256h200zM184 743q0 19 17 33t43 14h77q26 0 43 -14t17 -33v-28q0 -28 -33 -41l-48 -19q-11 -4 -11 -14v-36h-51v41q0 27 35 41l44 17q10 4 10 14v19q0 6 -4 9q-5 5 -10 5h-62q-5 0 -10 -5
q-4 -3 -4 -9v-28h-53v34z" />
    <glyph glyph-name="uni1EA3" unicode="&#x1ea3;" horiz-adv-x="459" 
d="M147 622q0 19 17 33t43 14h77q26 0 43 -14t17 -33v-28q0 -28 -33 -41l-48 -19q-11 -4 -11 -14v-36h-51v41q0 27 35 41l44 17q10 4 10 14v19q0 6 -4 9q-5 5 -10 5h-62q-5 0 -10 -5q-4 -3 -4 -9v-28h-53v34zM397 0h-58l-4 37q-26 -47 -80 -47h-108q-40 0 -69 29
q-28 28 -28 67v54q0 57 56 73l200 54q27 8 27 36v23q0 19 -13 33q-14 14 -33 14h-123q-19 0 -34 -14q-14 -14 -14 -33v-42h-59v51q0 40 28 68q29 28 69 28h145q41 0 69 -28q29 -28 29 -68v-335zM113 94q0 -19 13 -33q14 -14 33 -14h114q25 0 42 17t17 42v123q-7 -7 -20 -11
l-172 -49q-27 -6 -27 -37v-38z" />
    <glyph glyph-name="uni1EA4" unicode="&#x1ea4;" 
d="M235 568h63l224 -568h-70l-66 169h-240l-66 -169h-70zM366 226l-100 256l-100 -256h200zM250 734h45l82 -145h-57l-48 99l-48 -99h-57zM367 673l54 145h66l-75 -145h-45z" />
    <glyph glyph-name="uni1EA5" unicode="&#x1ea5;" horiz-adv-x="452" 
d="M397 0h-58l-4 37q-26 -47 -80 -47h-108q-40 0 -69 29q-28 28 -28 67v54q0 57 56 73l200 54q27 8 27 36v23q0 19 -13 33q-14 14 -33 14h-123q-19 0 -34 -14q-14 -14 -14 -33v-42h-59v51q0 40 28 68q29 28 69 28h145q41 0 69 -28q29 -28 29 -68v-335zM113 94q0 -19 13 -33
q14 -14 33 -14h114q25 0 42 17t17 42v123q-7 -7 -20 -11l-172 -49q-27 -6 -27 -37v-38zM202 588h45l82 -145h-57l-48 99l-48 -99h-57zM310 516l54 145h66l-75 -145h-45z" />
    <glyph glyph-name="uni1EA6" unicode="&#x1ea6;" 
d="M235 568h63l224 -568h-70l-66 169h-240l-66 -169h-70zM366 226l-100 256l-100 -256h200zM250 734h45l82 -145h-57l-48 99l-48 -99h-57zM145 683l-75 145h66l54 -145h-45z" />
    <glyph glyph-name="uni1EA7" unicode="&#x1ea7;" horiz-adv-x="452" 
d="M397 0h-58l-4 37q-26 -47 -80 -47h-108q-40 0 -69 29q-28 28 -28 67v54q0 57 56 73l200 54q27 8 27 36v23q0 19 -13 33q-14 14 -33 14h-123q-19 0 -34 -14q-14 -14 -14 -33v-42h-59v51q0 40 28 68q29 28 69 28h145q41 0 69 -28q29 -28 29 -68v-335zM113 94q0 -19 13 -33
q14 -14 33 -14h114q25 0 42 17t17 42v123q-7 -7 -20 -11l-172 -49q-27 -6 -27 -37v-38zM202 588h45l82 -145h-57l-48 99l-48 -99h-57zM304 685l54 -145h-45l-75 145h66z" />
    <glyph glyph-name="uni1EA8" unicode="&#x1ea8;" 
d="M235 568h63l224 -568h-70l-66 169h-240l-66 -169h-70zM366 226l-100 256l-100 -256h200zM247 737h45l82 -145h-57l-48 99l-48 -99h-57zM312 794q0 19 17 33t43 14h77q26 0 43 -14t17 -33v-28q0 -28 -33 -41l-48 -19q-11 -4 -11 -14v-36h-51v41q0 27 35 41l44 17
q10 4 10 14v19q0 6 -4 9q-5 5 -10 5h-62q-5 0 -10 -5q-4 -3 -4 -9v-28h-53v34z" />
    <glyph glyph-name="uni1EA9" unicode="&#x1ea9;" horiz-adv-x="452" 
d="M222 615h45l82 -145h-57l-48 99l-48 -99h-57zM397 0h-58l-4 37q-26 -47 -80 -47h-108q-40 0 -69 29q-28 28 -28 67v54q0 57 56 73l200 54q27 8 27 36v23q0 19 -13 33q-14 14 -33 14h-123q-19 0 -34 -14q-14 -14 -14 -33v-42h-59v51q0 40 28 68q29 28 69 28h145
q41 0 69 -28q29 -28 29 -68v-335zM113 94q0 -19 13 -33q14 -14 33 -14h114q25 0 42 17t17 42v123q-7 -7 -20 -11l-172 -49q-27 -6 -27 -37v-38zM241 740q0 19 17 33t43 14h77q26 0 43 -14t17 -33v-28q0 -28 -33 -41l-48 -19q-11 -4 -11 -14v-36h-51v41q0 27 35 41l44 17
q10 4 10 14v19q0 6 -4 9q-5 5 -10 5h-62q-5 0 -10 -5q-4 -3 -4 -9v-28h-53v34z" />
    <glyph glyph-name="uni1EAA" unicode="&#x1eaa;" 
d="M235 568h63l224 -568h-70l-66 169h-240l-66 -169h-70zM366 226l-100 256l-100 -256h200zM246 734h45l82 -145h-57l-48 99l-48 -99h-57zM132 748q3 39 23 64q22 28 57 28q26 0 68 -21t62 -21q35 0 43 42h29q-2 -39 -22 -64q-22 -28 -57 -28q-27 0 -68 21q-42 21 -62 21
q-36 0 -43 -42h-30z" />
    <glyph glyph-name="uni1EAB" unicode="&#x1eab;" horiz-adv-x="452" 
d="M397 0h-58l-4 37q-26 -47 -80 -47h-108q-40 0 -69 29q-28 28 -28 67v54q0 57 56 73l200 54q27 8 27 36v23q0 19 -13 33q-14 14 -33 14h-123q-19 0 -34 -14q-14 -14 -14 -33v-42h-59v51q0 40 28 68q29 28 69 28h145q41 0 69 -28q29 -28 29 -68v-335zM113 94q0 -19 13 -33
q14 -14 33 -14h114q25 0 42 17t17 42v123q-7 -7 -20 -11l-172 -49q-27 -6 -27 -37v-38zM202 588h45l82 -145h-57l-48 99l-48 -99h-57zM86 625q3 39 23 64q22 28 57 28q26 0 68 -21t62 -21q35 0 43 42h29q-2 -39 -22 -64q-22 -28 -57 -28q-27 0 -68 21q-42 21 -62 21
q-36 0 -43 -42h-30z" />
    <glyph glyph-name="uni1EAC" unicode="&#x1eac;" 
d="M235 568h63l224 -568h-70l-66 169h-240l-66 -169h-70zM366 226l-100 256l-100 -256h200zM250 734h45l82 -145h-57l-48 99l-48 -99h-57zM226 -48h80v-89h-80v89z" />
    <glyph glyph-name="uni1EAD" unicode="&#x1ead;" horiz-adv-x="459" 
d="M397 0h-58l-4 37q-26 -47 -80 -47h-108q-40 0 -69 29q-28 28 -28 67v54q0 57 56 73l200 54q27 8 27 36v23q0 19 -13 33q-14 14 -33 14h-123q-19 0 -34 -14q-14 -14 -14 -33v-42h-59v51q0 40 28 68q29 28 69 28h145q41 0 69 -28q29 -28 29 -68v-335zM113 94q0 -19 13 -33
q14 -14 33 -14h114q25 0 42 17t17 42v123q-7 -7 -20 -11l-172 -49q-27 -6 -27 -37v-38zM202 588h45l82 -145h-57l-48 99l-48 -99h-57zM176 -59h80v-89h-80v89z" />
    <glyph glyph-name="uni1EAE" unicode="&#x1eae;" 
d="M235 568h63l224 -568h-70l-66 169h-240l-66 -169h-70zM366 226l-100 256l-100 -256h200zM194 722q0 -32 21 -53q20 -20 47 -20t47 19q21 20 22 54h48q-1 -58 -37 -93q-34 -32 -80 -32q-47 0 -81 34q-36 36 -36 91h49zM239 713l54 145h66l-75 -145h-45z" />
    <glyph glyph-name="uni1EAF" unicode="&#x1eaf;" horiz-adv-x="452" 
d="M397 0h-58l-4 37q-26 -47 -80 -47h-108q-40 0 -69 29q-28 28 -28 67v54q0 57 56 73l200 54q27 8 27 36v23q0 19 -13 33q-14 14 -33 14h-123q-19 0 -34 -14q-14 -14 -14 -33v-42h-59v51q0 40 28 68q29 28 69 28h145q41 0 69 -28q29 -28 29 -68v-335zM113 94q0 -19 13 -33
q14 -14 33 -14h114q25 0 42 17t17 42v123q-7 -7 -20 -11l-172 -49q-27 -6 -27 -37v-38zM156 576q0 -32 21 -53q20 -20 47 -20t47 19q21 20 22 54h48q-1 -58 -37 -93q-34 -32 -80 -32q-47 0 -81 34q-36 36 -36 91h49zM184 612l54 145h66l-75 -145h-45z" />
    <glyph glyph-name="uni1EB0" unicode="&#x1eb0;" 
d="M235 568h63l224 -568h-70l-66 169h-240l-66 -169h-70zM366 226l-100 256l-100 -256h200zM194 722q0 -32 21 -53q20 -20 47 -20t47 19q21 20 22 54h48q-1 -58 -37 -93q-34 -32 -80 -32q-47 0 -81 34q-36 36 -36 91h49zM250 703l-75 145h66l54 -145h-45z" />
    <glyph glyph-name="uni1EB1" unicode="&#x1eb1;" horiz-adv-x="452" 
d="M397 0h-58l-4 37q-26 -47 -80 -47h-108q-40 0 -69 29q-28 28 -28 67v54q0 57 56 73l200 54q27 8 27 36v23q0 19 -13 33q-14 14 -33 14h-123q-19 0 -34 -14q-14 -14 -14 -33v-42h-59v51q0 40 28 68q29 28 69 28h145q41 0 69 -28q29 -28 29 -68v-335zM113 94q0 -19 13 -33
q14 -14 33 -14h114q25 0 42 17t17 42v123q-7 -7 -20 -11l-172 -49q-27 -6 -27 -37v-38zM156 576q0 -32 20 -53q20 -20 48 -20q27 0 46 19q22 20 23 54h48q-1 -58 -38 -93q-33 -32 -79 -32q-47 0 -81 34q-36 36 -36 91h49zM209 757l54 -145h-45l-75 145h66z" />
    <glyph glyph-name="uni1EB2" unicode="&#x1eb2;" 
d="M235 568h63l224 -568h-70l-66 169h-240l-66 -169h-70zM366 226l-100 256l-100 -256h200zM201 725q0 -32 21 -53q20 -20 47 -20t47 19q21 20 22 54h48q-1 -58 -37 -93q-34 -32 -80 -32q-47 0 -81 34q-36 36 -36 91h49zM193 845q0 19 17 33t43 14h77q26 0 43 -14t17 -33
v-28q0 -28 -33 -41l-48 -19q-11 -4 -11 -14v-36h-51v41q0 27 35 41l44 17q10 4 10 14v19q0 6 -4 9q-5 5 -10 5h-62q-5 0 -10 -5q-4 -3 -4 -9v-28h-53v34z" />
    <glyph glyph-name="uni1EB3" unicode="&#x1eb3;" horiz-adv-x="460" 
d="M397 0h-58l-4 37q-26 -47 -80 -47h-108q-40 0 -69 29q-28 28 -28 67v54q0 57 56 73l200 54q27 8 27 36v23q0 19 -13 33q-14 14 -33 14h-123q-19 0 -34 -14q-14 -14 -14 -33v-42h-59v51q0 40 28 68q29 28 69 28h145q41 0 69 -28q29 -28 29 -68v-335zM113 94q0 -19 13 -33
q14 -14 33 -14h114q25 0 42 17t17 42v123q-7 -7 -20 -11l-172 -49q-27 -6 -27 -37v-38zM156 576q0 -32 20 -53q20 -20 48 -20q27 0 46 19q22 20 23 54h48q-1 -58 -38 -93q-33 -32 -79 -32q-47 0 -81 34q-36 36 -36 91h49zM143 723q0 19 17 33t43 14h77q26 0 43 -14t17 -33
v-28q0 -28 -33 -41l-48 -19q-11 -4 -11 -14v-36h-51v41q0 27 35 41l44 17q10 4 10 14v19q0 6 -4 9q-5 5 -10 5h-62q-5 0 -10 -5q-4 -3 -4 -9v-28h-53v34z" />
    <glyph glyph-name="uni1EB4" unicode="&#x1eb4;" 
d="M235 568h63l224 -568h-70l-66 169h-240l-66 -169h-70zM366 226l-100 256l-100 -256h200zM201 725q0 -32 21 -53q20 -20 47 -20t47 19q21 20 22 54h48q-1 -58 -37 -93q-34 -32 -80 -32q-47 0 -81 34q-36 36 -36 91h49zM132 759q3 39 23 64q22 28 57 28q26 0 68 -21t62 -21
q35 0 43 42h29q-2 -39 -22 -64q-22 -28 -57 -28q-27 0 -68 21q-42 21 -62 21q-36 0 -43 -42h-30z" />
    <glyph glyph-name="uni1EB5" unicode="&#x1eb5;" horiz-adv-x="452" 
d="M397 0h-58l-4 37q-26 -47 -80 -47h-108q-40 0 -69 29q-28 28 -28 67v54q0 57 56 73l200 54q27 8 27 36v23q0 19 -13 33q-14 14 -33 14h-123q-19 0 -34 -14q-14 -14 -14 -33v-42h-59v51q0 40 28 68q29 28 69 28h145q41 0 69 -28q29 -28 29 -68v-335zM113 94q0 -19 13 -33
q14 -14 33 -14h114q25 0 42 17t17 42v123q-7 -7 -20 -11l-172 -49q-27 -6 -27 -37v-38zM156 576q0 -32 21 -53q20 -20 47 -20t47 19q21 20 22 54h48q-1 -58 -37 -93q-34 -32 -80 -32q-47 0 -81 34q-36 36 -36 91h49zM83 599q3 39 23 64q22 28 57 28q26 0 68 -21t62 -21
q35 0 43 42h29q-2 -39 -22 -64q-22 -28 -57 -28q-27 0 -68 21q-42 21 -62 21q-36 0 -43 -42h-30z" />
    <glyph glyph-name="uni1EB6" unicode="&#x1eb6;" 
d="M235 568h63l224 -568h-70l-66 169h-240l-66 -169h-70zM366 226l-100 256l-100 -256h200zM201 725q0 -32 21 -53q20 -20 47 -20t47 19q21 20 22 54h48q-1 -58 -37 -93q-34 -32 -80 -32q-47 0 -81 34q-36 36 -36 91h49zM227 -35h80v-89h-80v89z" />
    <glyph glyph-name="uni1EB7" unicode="&#x1eb7;" horiz-adv-x="452" 
d="M397 0h-58l-4 37q-26 -47 -80 -47h-108q-40 0 -69 29q-28 28 -28 67v54q0 57 56 73l200 54q27 8 27 36v23q0 19 -13 33q-14 14 -33 14h-123q-19 0 -34 -14q-14 -14 -14 -33v-42h-59v51q0 40 28 68q29 28 69 28h145q41 0 69 -28q29 -28 29 -68v-335zM113 94q0 -19 13 -33
q14 -14 33 -14h114q25 0 42 17t17 42v123q-7 -7 -20 -11l-172 -49q-27 -6 -27 -37v-38zM163 597q0 -32 20 -53q20 -20 48 -20q27 0 46 19q22 20 23 54h48q-1 -58 -38 -93q-33 -32 -79 -32q-47 0 -81 34q-36 36 -36 91h49zM179 -58h80v-89h-80v89z" />
    <glyph glyph-name="uni1EB8" unicode="&#x1eb8;" horiz-adv-x="476" 
d="M70 568h359v-60h-291v-192h224v-57h-224v-195h298v-64h-366v568zM210 -51h80v-89h-80v89z" />
    <glyph glyph-name="uni1EB9" unicode="&#x1eb9;" horiz-adv-x="461" 
d="M55 335q0 40 29 68q28 28 68 28h162q41 0 69 -28t28 -68v-130h-294v-110q0 -19 14 -33t33 -14h141q19 0 34 14q14 14 14 33v49h58v-58q0 -39 -28 -67q-28 -29 -69 -29h-162q-40 0 -68 29q-29 28 -29 67v249zM353 251v75q0 19 -14 33q-15 14 -34 14h-141q-19 0 -33 -14
t-14 -33v-75h236zM189 -61h80v-89h-80v89z" />
    <glyph glyph-name="uni1EBA" unicode="&#x1eba;" horiz-adv-x="476" 
d="M70 568h359v-60h-291v-192h224v-57h-224v-195h298v-64h-366v568zM177 747q0 19 17 33t43 14h77q26 0 43 -14t17 -33v-28q0 -28 -33 -41l-48 -19q-11 -4 -11 -14v-36h-51v41q0 27 35 41l44 17q10 4 10 14v19q0 6 -4 9q-5 5 -10 5h-62q-5 0 -10 -5q-4 -3 -4 -9v-28h-53v34z
" />
    <glyph glyph-name="uni1EBB" unicode="&#x1ebb;" horiz-adv-x="461" 
d="M55 335q0 40 29 68q28 28 68 28h162q41 0 69 -28t28 -68v-130h-294v-110q0 -19 14 -33t33 -14h141q19 0 34 14q14 14 14 33v49h58v-58q0 -39 -28 -67q-28 -29 -69 -29h-162q-40 0 -68 29q-29 28 -29 67v249zM353 251v75q0 19 -14 33q-15 14 -34 14h-141q-19 0 -33 -14
t-14 -33v-75h236zM153 635q0 19 17 33t43 14h77q26 0 43 -14t17 -33v-28q0 -28 -33 -41l-48 -19q-11 -4 -11 -14v-36h-51v41q0 27 35 41l44 17q10 4 10 14v19q0 6 -4 9q-5 5 -10 5h-62q-5 0 -10 -5q-4 -3 -4 -9v-28h-53v34z" />
    <glyph glyph-name="uni1EBC" unicode="&#x1ebc;" horiz-adv-x="476" 
d="M70 568h359v-60h-291v-192h224v-57h-224v-195h298v-64h-366v568zM126 642q3 39 23 64q22 28 57 28q26 0 68 -21t62 -21q35 0 43 42h29q-2 -39 -22 -64q-22 -28 -57 -28q-27 0 -68 21q-42 21 -62 21q-36 0 -43 -42h-30z" />
    <glyph glyph-name="uni1EBD" unicode="&#x1ebd;" horiz-adv-x="461" 
d="M55 335q0 40 29 68q28 28 68 28h162q41 0 69 -28t28 -68v-130h-294v-110q0 -19 14 -33t33 -14h141q19 0 34 14q14 14 14 33v49h58v-58q0 -39 -28 -67q-28 -29 -69 -29h-162q-40 0 -68 29q-29 28 -29 67v249zM353 251v75q0 19 -14 33q-15 14 -34 14h-141q-19 0 -33 -14
t-14 -33v-75h236zM109 499q3 39 23 64q22 28 57 28q26 0 68 -21t62 -21q35 0 43 42h29q-2 -39 -22 -64q-22 -28 -57 -28q-27 0 -68 21q-42 21 -62 21q-36 0 -43 -42h-30z" />
    <glyph glyph-name="uni1EBE" unicode="&#x1ebe;" horiz-adv-x="476" 
d="M228 766h45l82 -145h-57l-48 99l-48 -99h-57zM70 568h359v-60h-291v-192h224v-57h-224v-195h298v-64h-366v568zM337 690l54 145h66l-75 -145h-45z" />
    <glyph glyph-name="uni1EBF" unicode="&#x1ebf;" horiz-adv-x="461" 
d="M55 335q0 40 29 68q28 28 68 28h162q41 0 69 -28t28 -68v-130h-294v-110q0 -19 14 -33t33 -14h141q19 0 34 14q14 14 14 33v49h58v-58q0 -39 -28 -67q-28 -29 -69 -29h-162q-40 0 -68 29q-29 28 -29 67v249zM353 251v75q0 19 -14 33q-15 14 -34 14h-141q-19 0 -33 -14
t-14 -33v-75h236zM211 588h45l82 -145h-57l-48 99l-48 -99h-57zM322 516l54 145h66l-75 -145h-45z" />
    <glyph glyph-name="uni1EC0" unicode="&#x1ec0;" horiz-adv-x="476" 
d="M228 766h45l82 -145h-57l-48 99l-48 -99h-57zM70 568h359v-60h-291v-192h224v-57h-224v-195h298v-64h-366v568zM350 708l-75 145h66l54 -145h-45z" />
    <glyph glyph-name="uni1EC1" unicode="&#x1ec1;" horiz-adv-x="461" 
d="M55 335q0 40 29 68q28 28 68 28h162q41 0 69 -28t28 -68v-130h-294v-110q0 -19 14 -33t33 -14h141q19 0 34 14q14 14 14 33v49h58v-58q0 -39 -28 -67q-28 -29 -69 -29h-162q-40 0 -68 29q-29 28 -29 67v249zM353 251v75q0 19 -14 33q-15 14 -34 14h-141q-19 0 -33 -14
t-14 -33v-75h236zM211 588h45l82 -145h-57l-48 99l-48 -99h-57zM323 662l54 -145h-45l-75 145h66z" />
    <glyph glyph-name="uni1EC2" unicode="&#x1ec2;" horiz-adv-x="476" 
d="M228 766h45l82 -145h-57l-48 99l-48 -99h-57zM70 568h359v-60h-291v-192h224v-57h-224v-195h298v-64h-366v568zM298 821q0 19 17 33t43 14h77q26 0 43 -14t17 -33v-28q0 -28 -33 -41l-48 -19q-11 -4 -11 -14v-36h-51v41q0 27 35 41l44 17q10 4 10 14v19q0 6 -4 9
q-5 5 -10 5h-62q-5 0 -10 -5q-4 -3 -4 -9v-28h-53v34z" />
    <glyph glyph-name="uni1EC3" unicode="&#x1ec3;" horiz-adv-x="461" 
d="M55 335q0 40 29 68q28 28 68 28h162q41 0 69 -28t28 -68v-130h-294v-110q0 -19 14 -33t33 -14h141q19 0 34 14q14 14 14 33v49h58v-58q0 -39 -28 -67q-28 -29 -69 -29h-162q-40 0 -68 29q-29 28 -29 67v249zM353 251v75q0 19 -14 33q-15 14 -34 14h-141q-19 0 -33 -14
t-14 -33v-75h236zM211 588h45l82 -145h-57l-48 99l-48 -99h-57zM221 727q0 19 17 33t43 14h77q26 0 43 -14t17 -33v-28q0 -28 -33 -41l-48 -19q-11 -4 -11 -14v-36h-51v41q0 27 35 41l44 17q10 4 10 14v19q0 6 -4 9q-5 5 -10 5h-62q-5 0 -10 -5q-4 -3 -4 -9v-28h-53v34z" />
    <glyph glyph-name="uni1EC4" unicode="&#x1ec4;" horiz-adv-x="476" 
d="M228 766h45l82 -145h-57l-48 99l-48 -99h-57zM70 568h359v-60h-291v-192h224v-57h-224v-195h298v-64h-366v568zM115 799q3 39 23 64q22 28 57 28q26 0 68 -21t62 -21q35 0 43 42h29q-2 -39 -22 -64q-22 -28 -57 -28q-27 0 -68 21q-42 21 -62 21q-36 0 -43 -42h-30z" />
    <glyph glyph-name="uni1EC5" unicode="&#x1ec5;" horiz-adv-x="461" 
d="M55 335q0 40 29 68q28 28 68 28h162q41 0 69 -28t28 -68v-130h-294v-110q0 -19 14 -33t33 -14h141q19 0 34 14q14 14 14 33v49h58v-58q0 -39 -28 -67q-28 -29 -69 -29h-162q-40 0 -68 29q-29 28 -29 67v249zM353 251v75q0 19 -14 33q-15 14 -34 14h-141q-19 0 -33 -14
t-14 -33v-75h236zM211 588h45l82 -145h-57l-48 99l-48 -99h-57zM102 627q3 39 23 64q22 28 57 28q26 0 68 -21t62 -21q35 0 43 42h29q-2 -39 -22 -64q-22 -28 -57 -28q-27 0 -68 21q-42 21 -62 21q-36 0 -43 -42h-30z" />
    <glyph glyph-name="uni1EC6" unicode="&#x1ec6;" horiz-adv-x="476" 
d="M228 766h45l82 -145h-57l-48 99l-48 -99h-57zM70 568h359v-60h-291v-192h224v-57h-224v-195h298v-64h-366v568zM220 -51h80v-89h-80v89z" />
    <glyph glyph-name="uni1EC7" unicode="&#x1ec7;" horiz-adv-x="461" 
d="M55 335q0 40 29 68q28 28 68 28h162q41 0 69 -28t28 -68v-130h-294v-110q0 -19 14 -33t33 -14h141q19 0 34 14q14 14 14 33v49h58v-58q0 -39 -28 -67q-28 -29 -69 -29h-162q-40 0 -68 29q-29 28 -29 67v249zM353 251v75q0 19 -14 33q-15 14 -34 14h-141q-19 0 -33 -14
t-14 -33v-75h236zM211 588h45l82 -145h-57l-48 99l-48 -99h-57zM196 -55h80v-89h-80v89z" />
    <glyph glyph-name="uni1EC8" unicode="&#x1ec8;" horiz-adv-x="219" 
d="M75 568h69v-568h-69v568zM26 743q0 19 17 33t43 14h77q26 0 43 -14t17 -33v-28q0 -28 -33 -41l-48 -19q-11 -4 -11 -14v-36h-51v41q0 27 35 41l44 17q10 4 10 14v19q0 6 -4 9q-5 5 -10 5h-62q-5 0 -10 -5q-4 -3 -4 -9v-28h-53v34z" />
    <glyph glyph-name="uni1EC9" unicode="&#x1ec9;" horiz-adv-x="194" 
d="M65 421h64v-421h-64v421zM18 612q0 19 17 33t43 14h77q26 0 43 -14t17 -33v-28q0 -28 -33 -41l-48 -19q-11 -4 -11 -14v-36h-51v41q0 27 35 41l44 17q10 4 10 14v19q0 6 -4 9q-5 5 -10 5h-62q-5 0 -10 -5q-4 -3 -4 -9v-28h-53v34z" />
    <glyph glyph-name="uni1ECA" unicode="&#x1eca;" horiz-adv-x="219" 
d="M75 568h69v-568h-69v568zM65 -71h80v-89h-80v89z" />
    <glyph glyph-name="uni1ECB" unicode="&#x1ecb;" horiz-adv-x="194" 
d="M65 421h64v-421h-64v421zM58 -54h80v-89h-80v89z" />
    <glyph glyph-name="uni1ECC" unicode="&#x1ecc;" horiz-adv-x="574" 
d="M60 470q0 44 32 76t77 32h236q45 0 77 -32t32 -76v-372q0 -44 -32 -76q-31 -32 -77 -32h-236q-45 0 -77 32t-32 76v372zM128 109q0 -23 16 -39q17 -17 40 -17h206q24 0 40 17q16 16 16 39v350q0 23 -16 39q-16 17 -40 17h-206q-23 0 -40 -17q-16 -16 -16 -39v-350z
M237 -74h80v-89h-80v89z" />
    <glyph glyph-name="uni1ECD" unicode="&#x1ecd;" horiz-adv-x="477" 
d="M55 335q0 39 28 68q28 28 68 28h174q40 0 68 -28q29 -29 29 -68v-249q0 -40 -28 -68q-29 -28 -69 -28h-174q-40 0 -68 28t-28 68v249zM117 95q0 -19 13 -33q14 -14 33 -14h150q19 0 33 14t14 33v231q0 19 -14 33t-33 14h-150q-19 0 -33 -14q-13 -14 -13 -33v-231z
M193 -55h80v-89h-80v89z" />
    <glyph glyph-name="uni1ECE" unicode="&#x1ece;" horiz-adv-x="574" 
d="M60 470q0 44 32 76t77 32h236q45 0 77 -32t32 -76v-372q0 -44 -32 -76q-31 -32 -77 -32h-236q-45 0 -77 32t-32 76v372zM128 109q0 -23 16 -39q17 -17 40 -17h206q24 0 40 17q16 16 16 39v350q0 23 -16 39q-16 17 -40 17h-206q-23 0 -40 -17q-16 -16 -16 -39v-350z
M207 754q0 19 17 33t43 14h77q26 0 43 -14t17 -33v-28q0 -28 -33 -41l-48 -19q-11 -4 -11 -14v-36h-51v41q0 27 35 41l44 17q10 4 10 14v19q0 6 -4 9q-5 5 -10 5h-62q-5 0 -10 -5q-4 -3 -4 -9v-28h-53v34z" />
    <glyph glyph-name="uni1ECF" unicode="&#x1ecf;" horiz-adv-x="477" 
d="M55 335q0 39 28 68q28 28 68 28h174q40 0 68 -28q29 -29 29 -68v-249q0 -40 -28 -68q-29 -28 -69 -28h-174q-40 0 -68 28t-28 68v249zM117 95q0 -19 13 -33q14 -14 33 -14h150q19 0 33 14t14 33v231q0 19 -14 33t-33 14h-150q-19 0 -33 -14q-13 -14 -13 -33v-231z
M161 618q0 19 17 33t43 14h77q26 0 43 -14t17 -33v-28q0 -28 -33 -41l-48 -19q-11 -4 -11 -14v-36h-51v41q0 27 35 41l44 17q10 4 10 14v19q0 6 -4 9q-5 5 -10 5h-62q-5 0 -10 -5q-4 -3 -4 -9v-28h-53v34z" />
    <glyph glyph-name="uni1ED0" unicode="&#x1ed0;" horiz-adv-x="574" 
d="M265 766h45l82 -145h-57l-48 99l-48 -99h-57zM60 470q0 44 32 76t77 32h236q45 0 77 -32t32 -76v-372q0 -44 -32 -76q-31 -32 -77 -32h-236q-45 0 -77 32t-32 76v372zM128 109q0 -23 16 -39q17 -17 40 -17h206q24 0 40 17q16 16 16 39v350q0 23 -16 39q-16 17 -40 17
h-206q-23 0 -40 -17q-16 -16 -16 -39v-350zM388 690l54 145h66l-75 -145h-45z" />
    <glyph glyph-name="uni1ED1" unicode="&#x1ed1;" horiz-adv-x="477" 
d="M55 335q0 39 28 68q28 28 68 28h174q40 0 68 -28q29 -29 29 -68v-249q0 -40 -28 -68q-29 -28 -69 -28h-174q-40 0 -68 28t-28 68v249zM117 95q0 -19 13 -33q14 -14 33 -14h150q19 0 33 14t14 33v231q0 19 -14 33t-33 14h-150q-19 0 -33 -14q-13 -14 -13 -33v-231z
M217 588h45l82 -145h-57l-48 99l-48 -99h-57zM330 516l54 145h66l-75 -145h-45z" />
    <glyph glyph-name="uni1ED2" unicode="&#x1ed2;" horiz-adv-x="574" 
d="M265 766h45l82 -145h-57l-48 99l-48 -99h-57zM60 470q0 44 32 76t77 32h236q45 0 77 -32t32 -76v-372q0 -44 -32 -76q-31 -32 -77 -32h-236q-45 0 -77 32t-32 76v372zM128 109q0 -23 16 -39q17 -17 40 -17h206q24 0 40 17q16 16 16 39v350q0 23 -16 39q-16 17 -40 17
h-206q-23 0 -40 -17q-16 -16 -16 -39v-350zM395 700l-75 145h66l54 -145h-45z" />
    <glyph glyph-name="uni1ED3" unicode="&#x1ed3;" horiz-adv-x="477" 
d="M55 335q0 39 28 68q28 28 68 28h174q40 0 68 -28q29 -29 29 -68v-249q0 -40 -28 -68q-29 -28 -69 -28h-174q-40 0 -68 28t-28 68v249zM117 95q0 -19 13 -33q14 -14 33 -14h150q19 0 33 14t14 33v231q0 19 -14 33t-33 14h-150q-19 0 -33 -14q-13 -14 -13 -33v-231z
M217 588h45l82 -145h-57l-48 99l-48 -99h-57zM319 688l54 -145h-45l-75 145h66z" />
    <glyph glyph-name="uni1ED4" unicode="&#x1ed4;" horiz-adv-x="574" 
d="M265 766h45l82 -145h-57l-48 99l-48 -99h-57zM60 470q0 44 32 76t77 32h236q45 0 77 -32t32 -76v-372q0 -44 -32 -76q-31 -32 -77 -32h-236q-45 0 -77 32t-32 76v372zM128 109q0 -23 16 -39q17 -17 40 -17h206q24 0 40 17q16 16 16 39v350q0 23 -16 39q-16 17 -40 17
h-206q-23 0 -40 -17q-16 -16 -16 -39v-350zM330 841q0 19 17 33t43 14h77q26 0 43 -14t17 -33v-28q0 -28 -33 -41l-48 -19q-11 -4 -11 -14v-36h-51v41q0 27 35 41l44 17q10 4 10 14v19q0 6 -4 9q-5 5 -10 5h-62q-5 0 -10 -5q-4 -3 -4 -9v-28h-53v34z" />
    <glyph glyph-name="uni1ED5" unicode="&#x1ed5;" horiz-adv-x="477" 
d="M216 605h45l82 -145h-57l-48 99l-48 -99h-57zM55 335q0 39 28 68q28 28 68 28h174q40 0 68 -28q29 -29 29 -68v-249q0 -40 -28 -68q-29 -28 -69 -28h-174q-40 0 -68 28t-28 68v249zM117 95q0 -19 13 -33q14 -14 33 -14h150q19 0 33 14t14 33v231q0 19 -14 33t-33 14h-150
q-19 0 -33 -14q-13 -14 -13 -33v-231zM157 770q0 19 17 33t43 14h77q26 0 43 -14t17 -33v-28q0 -28 -33 -41l-48 -19q-11 -4 -11 -14v-36h-51v41q0 27 35 41l44 17q10 4 10 14v19q0 6 -4 9q-5 5 -10 5h-62q-5 0 -10 -5q-4 -3 -4 -9v-28h-53v34z" />
    <glyph glyph-name="uni1ED6" unicode="&#x1ed6;" horiz-adv-x="574" 
d="M265 766h45l82 -145h-57l-48 99l-48 -99h-57zM60 470q0 44 32 76t77 32h236q45 0 77 -32t32 -76v-372q0 -44 -32 -76q-31 -32 -77 -32h-236q-45 0 -77 32t-32 76v372zM128 109q0 -23 16 -39q17 -17 40 -17h206q24 0 40 17q16 16 16 39v350q0 23 -16 39q-16 17 -40 17
h-206q-23 0 -40 -17q-16 -16 -16 -39v-350zM153 800q3 39 23 64q22 28 57 28q26 0 68 -21t62 -21q35 0 43 42h29q-2 -39 -22 -64q-22 -28 -57 -28q-27 0 -68 21q-42 21 -62 21q-36 0 -43 -42h-30z" />
    <glyph glyph-name="uni1ED7" unicode="&#x1ed7;" horiz-adv-x="477" 
d="M55 335q0 39 28 68q28 28 68 28h174q40 0 68 -28q29 -29 29 -68v-249q0 -40 -28 -68q-29 -28 -69 -28h-174q-40 0 -68 28t-28 68v249zM117 95q0 -19 13 -33q14 -14 33 -14h150q19 0 33 14t14 33v231q0 19 -14 33t-33 14h-150q-19 0 -33 -14q-13 -14 -13 -33v-231z
M217 588h45l82 -145h-57l-48 99l-48 -99h-57zM111 628q3 39 23 64q22 28 57 28q26 0 68 -21t62 -21q35 0 43 42h29q-2 -39 -22 -64q-22 -28 -57 -28q-27 0 -68 21q-42 21 -62 21q-36 0 -43 -42h-30z" />
    <glyph glyph-name="uni1ED8" unicode="&#x1ed8;" horiz-adv-x="574" 
d="M265 766h45l82 -145h-57l-48 99l-48 -99h-57zM60 470q0 44 32 76t77 32h236q45 0 77 -32t32 -76v-372q0 -44 -32 -76q-31 -32 -77 -32h-236q-45 0 -77 32t-32 76v372zM128 109q0 -23 16 -39q17 -17 40 -17h206q24 0 40 17q16 16 16 39v350q0 23 -16 39q-16 17 -40 17
h-206q-23 0 -40 -17q-16 -16 -16 -39v-350zM241 -65h80v-89h-80v89z" />
    <glyph glyph-name="uni1ED9" unicode="&#x1ed9;" horiz-adv-x="477" 
d="M216 605h45l82 -145h-57l-48 99l-48 -99h-57zM55 335q0 39 28 68q28 28 68 28h174q40 0 68 -28q29 -29 29 -68v-249q0 -40 -28 -68q-29 -28 -69 -28h-174q-40 0 -68 28t-28 68v249zM117 95q0 -19 13 -33q14 -14 33 -14h150q19 0 33 14t14 33v231q0 19 -14 33t-33 14h-150
q-19 0 -33 -14q-13 -14 -13 -33v-231zM193 -58h80v-89h-80v89z" />
    <glyph glyph-name="uni1EDA" unicode="&#x1eda;" horiz-adv-x="609" 
d="M71 470q0 44 32 76t77 32h236q45 0 77 -32t32 -76v-372q0 -44 -32 -76q-31 -32 -77 -32h-236q-45 0 -77 32t-32 76v372zM139 109q0 -23 16 -39q17 -17 40 -17h206q24 0 40 17q16 16 16 39v350q0 23 -16 39q-16 17 -40 17h-206q-23 0 -40 -17q-16 -16 -16 -39v-350z
M619 527h-3q-7 -27 -29 -49q-32 -32 -77 -32h-24v63h9q24 0 40 17q16 16 16 39v60h68v-98zM263 643l54 145h66l-75 -145h-45z" />
    <glyph glyph-name="uni1EDB" unicode="&#x1edb;" horiz-adv-x="563" 
d="M54 335q0 39 28 68q28 28 68 28h174q40 0 68 -28q29 -29 29 -68v-249q0 -40 -28 -68q-29 -28 -69 -28h-174q-40 0 -68 28t-28 68v249zM116 95q0 -19 13 -33q14 -14 33 -14h150q19 0 33 14t14 33v231q0 19 -14 33t-33 14h-150q-19 0 -33 -14q-13 -14 -13 -33v-231z
M509 406h-3q-7 -27 -29 -49q-32 -32 -77 -32h-24v63h9q24 0 40 17q16 16 16 39v60h68v-98zM215 477l54 145h66l-75 -145h-45z" />
    <glyph glyph-name="uni1EDC" unicode="&#x1edc;" horiz-adv-x="609" 
d="M71 470q0 44 32 76t77 32h236q45 0 77 -32t32 -76v-372q0 -44 -32 -76q-31 -32 -77 -32h-236q-45 0 -77 32t-32 76v372zM139 109q0 -23 16 -39q17 -17 40 -17h206q24 0 40 17q16 16 16 39v350q0 23 -16 39q-16 17 -40 17h-206q-23 0 -40 -17q-16 -16 -16 -39v-350z
M619 527h-3q-7 -27 -29 -49q-32 -32 -77 -32h-24v63h9q24 0 40 17q16 16 16 39v60h68v-98zM262 791l54 -145h-45l-75 145h66z" />
    <glyph glyph-name="uni1EDD" unicode="&#x1edd;" horiz-adv-x="563" 
d="M54 335q0 39 28 68q28 28 68 28h174q40 0 68 -28q29 -29 29 -68v-249q0 -40 -28 -68q-29 -28 -69 -28h-174q-40 0 -68 28t-28 68v249zM116 95q0 -19 13 -33q14 -14 33 -14h150q19 0 33 14t14 33v231q0 19 -14 33t-33 14h-150q-19 0 -33 -14q-13 -14 -13 -33v-231z
M509 406h-3q-7 -27 -29 -49q-32 -32 -77 -32h-24v63h9q24 0 40 17q16 16 16 39v60h68v-98zM222 635l54 -145h-45l-75 145h66z" />
    <glyph glyph-name="uni1EDE" unicode="&#x1ede;" horiz-adv-x="603" 
d="M59 470q0 44 32 76t77 32h236q45 0 77 -32t32 -76v-372q0 -44 -32 -76q-31 -32 -77 -32h-236q-45 0 -77 32t-32 76v372zM127 109q0 -23 16 -39q17 -17 40 -17h206q24 0 40 17q16 16 16 39v350q0 23 -16 39q-16 17 -40 17h-206q-23 0 -40 -17q-16 -16 -16 -39v-350z
M607 527h-3q-7 -27 -29 -49q-32 -32 -77 -32h-24v63h9q24 0 40 17q16 16 16 39v60h68v-98zM198 753q0 19 17 33t43 14h77q26 0 43 -14t17 -33v-28q0 -28 -33 -41l-48 -19q-11 -4 -11 -14v-36h-51v41q0 27 35 41l44 17q10 4 10 14v19q0 6 -4 9q-5 5 -10 5h-62q-5 0 -10 -5
q-4 -3 -4 -9v-28h-53v34z" />
    <glyph glyph-name="uni1EDF" unicode="&#x1edf;" horiz-adv-x="475" 
d="M54 335q0 39 28 68q28 28 68 28h174q40 0 68 -28q29 -29 29 -68v-249q0 -40 -28 -68q-29 -28 -69 -28h-174q-40 0 -68 28t-28 68v249zM116 95q0 -19 13 -33q14 -14 33 -14h150q19 0 33 14t14 33v231q0 19 -14 33t-33 14h-150q-19 0 -33 -14q-13 -14 -13 -33v-231z
M509 406h-3q-7 -27 -29 -49q-32 -32 -77 -32h-24v63h9q24 0 40 17q16 16 16 39v60h68v-98zM157 625q0 19 17 33t43 14h77q26 0 43 -14t17 -33v-28q0 -28 -33 -41l-48 -19q-11 -4 -11 -14v-36h-51v41q0 27 35 41l44 17q10 4 10 14v19q0 6 -4 9q-5 5 -10 5h-62q-5 0 -10 -5
q-4 -3 -4 -9v-28h-53v34z" />
    <glyph glyph-name="uni1EE0" unicode="&#x1ee0;" horiz-adv-x="609" 
d="M71 470q0 44 32 76t77 32h236q45 0 77 -32t32 -76v-372q0 -44 -32 -76q-31 -32 -77 -32h-236q-45 0 -77 32t-32 76v372zM139 109q0 -23 16 -39q17 -17 40 -17h206q24 0 40 17q16 16 16 39v350q0 23 -16 39q-16 17 -40 17h-206q-23 0 -40 -17q-16 -16 -16 -39v-350z
M619 527h-3q-7 -27 -29 -49q-32 -32 -77 -32h-24v63h9q24 0 40 17q16 16 16 39v60h68v-98zM220 665q3 39 23 64q22 28 57 28q26 0 68 -21t62 -21q35 0 43 42h29q-2 -39 -22 -64q-22 -28 -57 -28q-27 0 -68 21q-42 21 -62 21q-36 0 -43 -42h-30z" />
    <glyph glyph-name="uni1EE1" unicode="&#x1ee1;" horiz-adv-x="563" 
d="M54 335q0 39 28 68q28 28 68 28h174q40 0 68 -28q29 -29 29 -68v-249q0 -40 -28 -68q-29 -28 -69 -28h-174q-40 0 -68 28t-28 68v249zM116 95q0 -19 13 -33q14 -14 33 -14h150q19 0 33 14t14 33v231q0 19 -14 33t-33 14h-150q-19 0 -33 -14q-13 -14 -13 -33v-231z
M509 406h-3q-7 -27 -29 -49q-32 -32 -77 -32h-24v63h9q24 0 40 17q16 16 16 39v60h68v-98zM136 465q3 39 23 64q22 28 57 28q26 0 68 -21t62 -21q35 0 43 42h29q-2 -39 -22 -64q-22 -28 -57 -28q-27 0 -68 21q-42 21 -62 21q-36 0 -43 -42h-30z" />
    <glyph glyph-name="uni1EE2" unicode="&#x1ee2;" horiz-adv-x="603" 
d="M59 470q0 44 32 76t77 32h236q45 0 77 -32t32 -76v-372q0 -44 -32 -76q-31 -32 -77 -32h-236q-45 0 -77 32t-32 76v372zM127 109q0 -23 16 -39q17 -17 40 -17h206q24 0 40 17q16 16 16 39v350q0 23 -16 39q-16 17 -40 17h-206q-23 0 -40 -17q-16 -16 -16 -39v-350z
M607 527h-3q-7 -27 -29 -49q-32 -32 -77 -32h-24v63h9q24 0 40 17q16 16 16 39v60h68v-98zM247 -68h80v-89h-80v89z" />
    <glyph glyph-name="uni1EE3" unicode="&#x1ee3;" horiz-adv-x="475" 
d="M54 335q0 39 28 68q28 28 68 28h174q40 0 68 -28q29 -29 29 -68v-249q0 -40 -28 -68q-29 -28 -69 -28h-174q-40 0 -68 28t-28 68v249zM116 95q0 -19 13 -33q14 -14 33 -14h150q19 0 33 14t14 33v231q0 19 -14 33t-33 14h-150q-19 0 -33 -14q-13 -14 -13 -33v-231z
M509 406h-3q-7 -27 -29 -49q-32 -32 -77 -32h-24v63h9q24 0 40 17q16 16 16 39v60h68v-98zM193 -68h80v-89h-80v89z" />
    <glyph glyph-name="uni1EE4" unicode="&#x1ee4;" horiz-adv-x="554" 
d="M65 568h67v-459q0 -23 17 -39q16 -17 40 -17h175q24 0 41 17q16 16 16 39v459h68v-470q0 -44 -32 -76q-31 -32 -77 -32h-207q-44 0 -76 32t-32 76v470zM234 -58h80v-89h-80v89z" />
    <glyph glyph-name="uni1EE5" unicode="&#x1ee5;" horiz-adv-x="472" 
d="M55 421h64v-324q0 -20 14 -34t33 -14h124q27 0 45 19q18 18 18 45v308h64v-421h-58l-5 38q-24 -48 -78 -48h-124q-40 0 -69 29q-28 28 -28 67v335zM194 -58h80v-89h-80v89z" />
    <glyph glyph-name="uni1EE6" unicode="&#x1ee6;" horiz-adv-x="554" 
d="M65 568h67v-459q0 -23 17 -39q16 -17 40 -17h175q24 0 41 17q16 16 16 39v459h68v-470q0 -44 -32 -76q-31 -32 -77 -32h-207q-44 0 -76 32t-32 76v470zM197 734q0 19 17 33t43 14h77q26 0 43 -14t17 -33v-28q0 -28 -33 -41l-48 -19q-11 -4 -11 -14v-36h-51v41q0 27 35 41
l44 17q10 4 10 14v19q0 6 -4 9q-5 5 -10 5h-62q-5 0 -10 -5q-4 -3 -4 -9v-28h-53v34z" />
    <glyph glyph-name="uni1EE7" unicode="&#x1ee7;" horiz-adv-x="472" 
d="M55 421h64v-324q0 -20 14 -34t33 -14h124q27 0 45 19q18 18 18 45v308h64v-421h-58l-5 38q-24 -48 -78 -48h-124q-40 0 -69 29q-28 28 -28 67v335zM157 598q0 19 17 33t43 14h77q26 0 43 -14t17 -33v-28q0 -28 -33 -41l-48 -19q-11 -4 -11 -14v-36h-51v41q0 27 35 41
l44 17q10 4 10 14v19q0 6 -4 9q-5 5 -10 5h-62q-5 0 -10 -5q-4 -3 -4 -9v-28h-53v34z" />
    <glyph glyph-name="uni1EE8" unicode="&#x1ee8;" horiz-adv-x="554" 
d="M65 568h67v-459q0 -23 17 -39q16 -17 40 -17h175q24 0 41 17q16 16 16 39v459h68v-470q0 -44 -32 -76q-31 -32 -77 -32h-207q-44 0 -76 32t-32 76v470zM602 534h-3q-7 -27 -29 -49q-32 -32 -77 -32h-24v63h9q24 0 40 17q16 16 16 39v60h68v-98zM253 626l54 145h66
l-75 -145h-45z" />
    <glyph glyph-name="uni1EE9" unicode="&#x1ee9;" horiz-adv-x="496" 
d="M55 421h64v-324q0 -20 14 -34t33 -14h124q27 0 45 19q18 18 18 45v308h64v-421h-58l-5 38q-24 -48 -78 -48h-124q-40 0 -69 29q-28 28 -28 67v335zM513 391h-3q-6 -23 -25 -41q-28 -27 -67 -27h-21v53h8q21 0 35 14q14 13 14 33v50h59v-82zM215 494l54 145h66l-75 -145
h-45z" />
    <glyph glyph-name="uni1EEA" unicode="&#x1eea;" horiz-adv-x="594" 
d="M69 568h67v-459q0 -23 17 -39q16 -17 40 -17h175q24 0 41 17q16 16 16 39v459h68v-470q0 -44 -32 -76q-31 -32 -77 -32h-207q-44 0 -76 32t-32 76v470zM606 534h-3q-7 -27 -29 -49q-32 -32 -77 -32h-24v63h9q24 0 40 17q16 16 16 39v60h68v-98zM267 755l54 -145h-45
l-75 145h66z" />
    <glyph glyph-name="uni1EEB" unicode="&#x1eeb;" horiz-adv-x="516" 
d="M69 421h64v-324q0 -20 14 -34t33 -14h124q27 0 45 19q18 18 18 45v308h64v-421h-58l-5 38q-24 -48 -78 -48h-124q-40 0 -69 29q-28 28 -28 67v335zM527 391h-3q-6 -23 -25 -41q-28 -27 -67 -27h-21v53h8q21 0 35 14q14 13 14 33v50h59v-82zM226 595l54 -145h-45l-75 145
h66z" />
    <glyph glyph-name="uni1EEC" unicode="&#x1eec;" horiz-adv-x="580" 
d="M65 568h67v-459q0 -23 17 -39q16 -17 40 -17h175q24 0 41 17q16 16 16 39v459h68v-470q0 -44 -32 -76q-31 -32 -77 -32h-207q-44 0 -76 32t-32 76v470zM602 534h-3q-7 -27 -29 -49q-32 -32 -77 -32h-24v63h9q24 0 40 17q16 16 16 39v60h68v-98zM194 737q0 19 17 33t43 14
h77q26 0 43 -14t17 -33v-28q0 -28 -33 -41l-48 -19q-11 -4 -11 -14v-36h-51v41q0 27 35 41l44 17q10 4 10 14v19q0 6 -4 9q-5 5 -10 5h-62q-5 0 -10 -5q-4 -3 -4 -9v-28h-53v34z" />
    <glyph glyph-name="uni1EED" unicode="&#x1eed;" horiz-adv-x="503" 
d="M55 421h64v-324q0 -20 14 -34t33 -14h124q27 0 45 19q18 18 18 45v308h64v-421h-58l-5 38q-24 -48 -78 -48h-124q-40 0 -69 29q-28 28 -28 67v335zM513 391h-3q-6 -23 -25 -41q-28 -27 -67 -27h-21v53h8q21 0 35 14q14 13 14 33v50h59v-82zM160 615q0 19 17 33t43 14h77
q26 0 43 -14t17 -33v-28q0 -28 -33 -41l-48 -19q-11 -4 -11 -14v-36h-51v41q0 27 35 41l44 17q10 4 10 14v19q0 6 -4 9q-5 5 -10 5h-62q-5 0 -10 -5q-4 -3 -4 -9v-28h-53v34z" />
    <glyph glyph-name="uni1EEE" unicode="&#x1eee;" horiz-adv-x="597" 
d="M69 568h67v-459q0 -23 17 -39q16 -17 40 -17h175q24 0 41 17q16 16 16 39v459h68v-470q0 -44 -32 -76q-31 -32 -77 -32h-207q-44 0 -76 32t-32 76v470zM606 534h-3q-7 -27 -29 -49q-32 -32 -77 -32h-24v63h9q24 0 40 17q16 16 16 39v60h68v-98zM150 638q3 39 23 64
q22 28 57 28q26 0 68 -21t62 -21q35 0 43 42h29q-2 -39 -22 -64q-22 -28 -57 -28q-27 0 -68 21q-42 21 -62 21q-36 0 -43 -42h-30z" />
    <glyph glyph-name="uni1EEF" unicode="&#x1eef;" horiz-adv-x="513" 
d="M69 421h64v-324q0 -20 14 -34t33 -14h124q27 0 45 19q18 18 18 45v308h64v-421h-58l-5 38q-24 -48 -78 -48h-124q-40 0 -69 29q-28 28 -28 67v335zM527 391h-3q-6 -23 -25 -41q-28 -27 -67 -27h-21v53h8q21 0 35 14q14 13 14 33v50h59v-82zM118 492q3 39 23 64
q22 28 57 28q26 0 68 -21t62 -21q34 0 43 42h29q-3 -39 -22 -64q-22 -28 -57 -28q-27 0 -69 21q-41 21 -61 21q-37 0 -43 -42h-30z" />
    <glyph glyph-name="uni1EF0" unicode="&#x1ef0;" horiz-adv-x="560" 
d="M65 568h67v-459q0 -23 17 -39q16 -17 40 -17h175q24 0 41 17q16 16 16 39v459h68v-470q0 -44 -32 -76q-31 -32 -77 -32h-207q-44 0 -76 32t-32 76v470zM602 534h-3q-7 -27 -29 -49q-32 -32 -77 -32h-24v63h9q24 0 40 17q16 16 16 39v60h68v-98zM247 -65h80v-89h-80v89z
" />
    <glyph glyph-name="uni1EF1" unicode="&#x1ef1;" horiz-adv-x="472" 
d="M55 421h64v-324q0 -20 14 -34t33 -14h124q27 0 45 19q18 18 18 45v308h64v-421h-58l-5 38q-24 -48 -78 -48h-124q-40 0 -69 29q-28 28 -28 67v335zM513 391h-3q-6 -23 -25 -41q-28 -27 -67 -27h-21v53h8q21 0 35 14q14 13 14 33v50h59v-82zM183 -62h80v-89h-80v89z" />
    <glyph glyph-name="uni1EF4" unicode="&#x1ef4;" horiz-adv-x="503" 
d="M10 568h77l164 -272l165 272h77l-208 -340v-228h-67v228zM210 -52h80v-89h-80v89z" />
    <glyph glyph-name="uni1EF5" unicode="&#x1ef5;" horiz-adv-x="397" 
d="M78 -217l90 226l-163 412h70l126 -329l124 329h67l-246 -638h-68zM267 -54h80v-89h-80v89z" />
    <glyph glyph-name="uni1EF6" unicode="&#x1ef6;" horiz-adv-x="503" 
d="M10 568h77l164 -272l165 272h77l-208 -340v-228h-67v228zM171 713q0 19 17 33t43 14h77q26 0 43 -14t17 -33v-28q0 -28 -33 -41l-48 -19q-11 -4 -11 -14v-36h-51v41q0 27 35 41l44 17q10 4 10 14v19q0 6 -4 9q-5 5 -10 5h-62q-5 0 -10 -5q-4 -3 -4 -9v-28h-53v34z" />
    <glyph glyph-name="uni1EF7" unicode="&#x1ef7;" horiz-adv-x="397" 
d="M78 -217l90 226l-163 412h70l126 -329l124 329h67l-246 -638h-68zM113 598q0 19 17 33t43 14h77q26 0 43 -14t17 -33v-28q0 -28 -33 -41l-48 -19q-11 -4 -11 -14v-36h-51v41q0 27 35 41l44 17q10 4 10 14v19q0 6 -4 9q-5 5 -10 5h-62q-5 0 -10 -5q-4 -3 -4 -9v-28h-53v34
z" />
    <glyph glyph-name="uni1EF8" unicode="&#x1ef8;" horiz-adv-x="503" 
d="M10 568h77l164 -272l165 272h77l-208 -340v-228h-67v228zM124 624q3 39 23 64q22 28 57 28q26 0 68 -21t62 -21q34 0 43 42h29q-3 -39 -23 -64q-22 -28 -56 -28q-27 0 -69 21t-61 21q-37 0 -43 -42h-30z" />
    <glyph glyph-name="uni1EF9" unicode="&#x1ef9;" horiz-adv-x="397" 
d="M78 -217l90 226l-163 412h70l126 -329l124 329h67l-246 -638h-68zM75 482q3 39 23 64q22 28 57 28q26 0 68 -21t62 -21q34 0 43 42h29q-3 -39 -23 -64q-22 -28 -56 -28q-27 0 -69 21t-61 21q-37 0 -43 -42h-30z" />
    <glyph glyph-name="Dcroat" unicode="&#x110;" horiz-adv-x="567" 
d="M70 0v272h-50v47h50v249h328q46 0 77 -32q32 -31 32 -76v-352q0 -44 -32 -76q-31 -32 -77 -32h-328zM382 63q24 0 41 17q16 16 16 39v330q0 23 -16 39q-17 17 -41 17h-244v-186h98v-47h-98v-209h244z" />
    <glyph glyph-name="dcroat" unicode="&#x111;" horiz-adv-x="480" 
d="M55 335q0 39 28 68q28 28 69 28h130q55 0 79 -48v255h64v-638h-58l-5 37q-25 -47 -79 -47h-131q-41 0 -69 28t-28 68v249zM119 93q0 -19 13 -33q14 -14 33 -14h132q27 0 46 18q18 19 18 45v199q0 26 -18 45q-19 18 -46 18h-132q-19 0 -33 -14q-13 -14 -13 -33v-231z
M234 598h191v-34h-191v34z" />
    <glyph glyph-name="Utilde" unicode="&#x168;" horiz-adv-x="554" 
d="M65 568h67v-459q0 -23 17 -39q16 -17 40 -17h175q24 0 41 17q16 16 16 39v459h68v-470q0 -44 -32 -76q-31 -32 -77 -32h-207q-44 0 -76 32t-32 76v470zM143 641q3 39 23 64q22 28 57 28q26 0 68 -21t62 -21q35 0 43 42h29q-2 -39 -22 -64q-22 -28 -57 -28q-27 0 -68 21
q-42 21 -62 21q-36 0 -43 -42h-30z" />
    <glyph glyph-name="utilde" unicode="&#x169;" horiz-adv-x="472" 
d="M55 421h64v-324q0 -20 14 -34t33 -14h124q27 0 45 19q18 18 18 45v308h64v-421h-58l-5 38q-24 -48 -78 -48h-124q-40 0 -69 29q-28 28 -28 67v335zM108 498q3 39 23 64q22 28 57 28q26 0 68 -21t62 -21q35 0 43 42h29q-2 -39 -22 -64q-22 -28 -57 -28q-27 0 -68 21
q-42 21 -62 21q-36 0 -43 -42h-30z" />
    <glyph glyph-name="Ygrave" unicode="&#x1ef2;" horiz-adv-x="503" 
d="M10 568h77l164 -272l165 272h77l-208 -340v-228h-67v228zM238 788l54 -145h-45l-75 145h66z" />
    <glyph glyph-name="ygrave" unicode="&#x1ef3;" horiz-adv-x="397" 
d="M78 -217l90 226l-163 412h70l126 -329l124 329h67l-246 -638h-68zM185 605l54 -145h-45l-75 145h66z" />
    <glyph glyph-name="Itilde" unicode="&#x128;" horiz-adv-x="219" 
d="M76 568h69v-568h-69v568zM-34 642q3 39 23 64q22 28 57 28q26 0 68 -21t62 -21q35 0 43 42h29q-2 -39 -22 -64q-22 -28 -57 -28q-27 0 -68 21q-42 21 -62 21q-36 0 -43 -42h-30z" />
    <glyph glyph-name="itilde" unicode="&#x129;" horiz-adv-x="194" 
d="M65 421h64v-421h-64v421zM-44 488q3 39 23 64q22 28 57 28q26 0 68 -21t62 -21q35 0 43 42h29q-2 -39 -22 -64q-22 -28 -57 -28q-27 0 -68 21q-42 21 -62 21q-36 0 -43 -42h-30z" />
    <glyph glyph-name="Uhorn" unicode="&#x1af;" horiz-adv-x="554" 
d="M65 568h67v-459q0 -23 17 -39q16 -17 40 -17h175q24 0 41 17q16 16 16 39v459h68v-470q0 -44 -32 -76q-31 -32 -77 -32h-207q-44 0 -76 32t-32 76v470zM602 534h-3q-7 -27 -29 -49q-32 -32 -77 -32h-24v63h9q24 0 40 17q16 16 16 39v60h68v-98z" />
    <glyph glyph-name="uhorn" unicode="&#x1b0;" horiz-adv-x="472" 
d="M55 421h64v-324q0 -20 14 -34t33 -14h124q27 0 45 19q18 18 18 45v308h64v-421h-58l-5 38q-24 -48 -78 -48h-124q-40 0 -69 29q-28 28 -28 67v335zM513 391h-3q-6 -23 -25 -41q-28 -27 -67 -27h-21v53h8q21 0 35 14q14 13 14 33v50h59v-82z" />
    <glyph glyph-name="Ohorn" unicode="&#x1a0;" horiz-adv-x="603" 
d="M59 470q0 44 32 76t77 32h236q45 0 77 -32t32 -76v-372q0 -44 -32 -76q-31 -32 -77 -32h-236q-45 0 -77 32t-32 76v372zM127 109q0 -23 16 -39q17 -17 40 -17h206q24 0 40 17q16 16 16 39v350q0 23 -16 39q-16 17 -40 17h-206q-23 0 -40 -17q-16 -16 -16 -39v-350z
M607 527h-3q-7 -27 -29 -49q-32 -32 -77 -32h-24v63h9q24 0 40 17q16 16 16 39v60h68v-98z" />
    <glyph glyph-name="ohorn" unicode="&#x1a1;" horiz-adv-x="475" 
d="M54 335q0 39 28 68q28 28 68 28h174q40 0 68 -28q29 -29 29 -68v-249q0 -40 -28 -68q-29 -28 -69 -28h-174q-40 0 -68 28t-28 68v249zM116 95q0 -19 13 -33q14 -14 33 -14h150q19 0 33 14t14 33v231q0 19 -14 33t-33 14h-150q-19 0 -33 -14q-13 -14 -13 -33v-231z
M509 406h-3q-7 -27 -29 -49q-32 -32 -77 -32h-24v63h9q24 0 40 17q16 16 16 39v60h68v-98z" />
    </font>
</defs>
</svg>
